<?xml version="1.0" encoding="UTF-8" standalone="no"?>
<!-- Created with Inkscape (http://www.inkscape.org/) -->

<svg
   width="149.31635mm"
   height="146.8159mm"
   viewBox="0 0 149.31635 146.8159"
   version="1.1"
   id="svg5"
   inkscape:version="1.2.2 (732a01da63, 2022-12-09)"
   sodipodi:docname="B-Rank.svg"
   xmlns:inkscape="http://www.inkscape.org/namespaces/inkscape"
   xmlns:sodipodi="http://sodipodi.sourceforge.net/DTD/sodipodi-0.dtd"
   xmlns:xlink="http://www.w3.org/1999/xlink"
   xmlns="http://www.w3.org/2000/svg"
   xmlns:svg="http://www.w3.org/2000/svg">
  <sodipodi:namedview
     id="namedview7"
     pagecolor="#505050"
     bordercolor="#eeeeee"
     borderopacity="1"
     inkscape:showpageshadow="0"
     inkscape:pageopacity="0"
     inkscape:pagecheckerboard="0"
     inkscape:deskcolor="#505050"
     inkscape:document-units="mm"
     showgrid="false"
     inkscape:zoom="1.3266287"
     inkscape:cx="256.66564"
     inkscape:cy="259.3039"
     inkscape:window-width="2560"
     inkscape:window-height="1369"
     inkscape:window-x="-8"
     inkscape:window-y="205"
     inkscape:window-maximized="1"
     inkscape:current-layer="layer1" />
  <defs
     id="defs2">
    <linearGradient
       inkscape:collect="always"
       id="linearGradient49403">
      <stop
         style="stop-color:#ff8080;stop-opacity:1;"
         offset="0"
         id="stop49399" />
      <stop
         style="stop-color:#ff0000;stop-opacity:1;"
         offset="1"
         id="stop49401" />
    </linearGradient>
    <linearGradient
       inkscape:collect="always"
       id="linearGradient49395">
      <stop
         style="stop-color:#7f0000;stop-opacity:1;"
         offset="0"
         id="stop49391" />
      <stop
         style="stop-color:#ff8080;stop-opacity:1;"
         offset="1"
         id="stop49393" />
    </linearGradient>
    <linearGradient
       inkscape:collect="always"
       id="linearGradient37949">
      <stop
         style="stop-color:#ff7f7f;stop-opacity:1;"
         offset="0"
         id="stop37945" />
      <stop
         style="stop-color:#800000;stop-opacity:1;"
         offset="1"
         id="stop37947" />
    </linearGradient>
    <linearGradient
       inkscape:collect="always"
       id="linearGradient8176">
      <stop
         style="stop-color:#ffffff;stop-opacity:1;"
         offset="0"
         id="stop8172" />
      <stop
         style="stop-color:#ffffff;stop-opacity:0;"
         offset="1"
         id="stop8174" />
    </linearGradient>
    <linearGradient
       id="linearGradient5825"
       inkscape:swatch="solid">
      <stop
         style="stop-color:#ffffff;stop-opacity:1;"
         offset="0"
         id="stop5823" />
    </linearGradient>
    <rect
       x="192.21655"
       y="359.55801"
       width="216.33784"
       height="251.01221"
       id="rect2173" />
    <linearGradient
       inkscape:collect="always"
       xlink:href="#linearGradient8176"
       id="linearGradient8178"
       x1="297.7334"
       y1="367.15628"
       x2="303.15808"
       y2="367.15628"
       gradientUnits="userSpaceOnUse" />
    <linearGradient
       inkscape:collect="always"
       xlink:href="#linearGradient37949"
       id="linearGradient37951"
       x1="303.09872"
       y1="364.55203"
       x2="297.8555"
       y2="369.88602"
       gradientUnits="userSpaceOnUse" />
    <linearGradient
       inkscape:collect="always"
       xlink:href="#linearGradient49395"
       id="linearGradient49397"
       x1="-177.18829"
       y1="144.33408"
       x2="206.32722"
       y2="-156.19855"
       gradientUnits="userSpaceOnUse" />
    <radialGradient
       inkscape:collect="always"
       xlink:href="#linearGradient49403"
       id="radialGradient49405"
       cx="0.6790536"
       cy="-13.560928"
       fx="0.6790536"
       fy="-13.560928"
       r="419.77939"
       gradientTransform="matrix(1,0,0,0.98325406,0,-0.2270905)"
       gradientUnits="userSpaceOnUse" />
  </defs>
  <g
     inkscape:label="Layer 1"
     inkscape:groupmode="layer"
     id="layer1"
     transform="translate(-30.341825,-75.092042)">
    <path
       sodipodi:type="star"
       style="fill:url(#radialGradient49405);fill-opacity:1;stroke:url(#linearGradient49397);stroke-width:29.7534;stroke-dasharray:none"
       id="path49389"
       inkscape:flatsided="false"
       sodipodi:sides="7"
       sodipodi:cx="4.2640824"
       sodipodi:cy="4.2640824"
       sodipodi:r1="390.36301"
       sodipodi:r2="195.18146"
       sodipodi:arg1="0.26179939"
       sodipodi:arg2="0.71059834"
       inkscape:rounded="0"
       inkscape:randomized="0"
       d="M 381.32579,105.29746 152.20611,131.57849 160.36713,362.05608 -3.0339857,199.30905 -178.1403,349.39003 -152.77849,120.16677 -379.29352,76.837096 -184.26673,-46.252596 -291.62004,-250.36479 l 217.832615,75.73292 92.647647,-211.19408 76.606033,217.5271 222.883035,-59.2425 -122.30645,195.518934 z"
       transform="matrix(0.17785098,0,0,0.17785098,104.87923,150.91182)"
       inkscape:transform-center-x="0.57765082"
       inkscape:transform-center-y="-2.8721213" />
    <g
       aria-label="B"
       transform="matrix(8.9893347,0,0,8.9893347,-2595.5376,-3151.1962)"
       id="text2171"
       style="font-weight:bold;font-family:'Segoe Print';-inkscape-font-specification:'Segoe Print Bold';text-align:center;white-space:pre;shape-inside:url(#rect2173);display:inline;opacity:1;fill:#ffffff;stroke:url(#linearGradient37951);stroke-width:0.588661">
      <path
         d="m 301.17174,369.07459 c -0.012,0.816 -0.024,1.56 -0.024,1.56 -0.744,0.036 -1.38,0.036 -1.38,0.036 -0.048,-0.588 -0.06,-1.644 -0.06,-1.644 0,0 0.744,0 1.464,0.048 z m -0.12,-1.56 c -0.588,0.024 -1.356,0.024 -1.356,0.024 0,0 -0.132,-1.752 -0.18,-3.576 0.804,-0.012 1.728,0 1.728,0 -0.096,1.752 -0.192,3.552 -0.192,3.552 z m 1.764,3.384 c 0.012,-0.948 0.096,-2.208 0.096,-2.208 -0.816,-0.312 -1.32,-0.552 -1.32,-0.552 0,0 0.528,-0.276 1.044,-0.672 0.204,-1.656 0.48,-3.6 0.48,-3.6 -0.924,-0.852 -1.728,-1.656 -1.728,-1.656 -1.908,0.072 -3.66,0.228 -3.66,0.228 0.204,4.476 0.564,9.612 0.564,9.612 1.656,0.012 3.012,0.036 3.012,0.036 0.768,-0.648 1.512,-1.188 1.512,-1.188 z"
         style="font-family:Splatoon2;-inkscape-font-specification:'Splatoon2 Bold'"
         id="path49407" />
    </g>
  </g>
</svg>
