<?xml version="1.0" standalone="no"?>
<!DOCTYPE svg PUBLIC "-//W3C//DTD SVG 20010904//EN" "http://www.w3.org/TR/2001/REC-SVG-20010904/DTD/svg10.dtd">
<!-- Created using Krita: https://krita.org -->
<svg xmlns="http://www.w3.org/2000/svg" 
    xmlns:xlink="http://www.w3.org/1999/xlink"
    xmlns:krita="http://krita.org/namespaces/svg/krita"
    xmlns:sodipodi="http://sodipodi.sourceforge.net/DTD/sodipodi-0.dtd"
    width="30.96pt"
    height="30.96pt"
    viewBox="0 0 30.96 30.96">
<defs>
  <linearGradient id="gradient0" gradientUnits="objectBoundingBox" x1="0.5" y1="0.00806451642949822" x2="0.5" y2="0.997983870892625" spreadMethod="pad">
   <stop stop-color="#ffee00" offset="0" stop-opacity="1"/>
   <stop stop-color="#ffbb00" offset="1" stop-opacity="1"/>
  </linearGradient>
  <radialGradient id="gradient1" gradientUnits="objectBoundingBox" cx="0.5" cy="0.5" fx="0.5" fy="0.5" r="1.41421356237309" spreadMethod="pad">
   <stop stop-color="#ffbb00" offset="0" stop-opacity="1"/>
   <stop stop-color="#ffff00" offset="0.363599985837936" stop-opacity="1"/>
  </radialGradient>
 </defs>
<g id="group0" transform="matrix(0.505098929987614 0 0 0.505098929987614 14.9575627742617 7.96412792178431)" fill="none">
  <circle id="shape0" r="14.88" cx="14.88" cy="14.88" fill="url(#gradient0)" fill-rule="evenodd" stroke="#915a13" stroke-width="0.72" stroke-linecap="square" stroke-linejoin="bevel"/>
  <circle id="shape01" transform="matrix(0.999999998128765 0 0 0.999999998128765 2.88 2.88)" r="12.0000000224548" cx="12.0000000224548" cy="12.0000000224548" fill="url(#gradient1)" stroke="#da871d" stroke-width="0.72" stroke-linecap="square" stroke-linejoin="bevel"/>
  <path id="shape01" transform="matrix(0.999999965221204 0 0 0.999999965221204 5.89745273652364 6.10045032203599)" fill="#000000" fill-opacity="0.243137254901961" fill-rule="evenodd" stroke-opacity="0" stroke="#000000" stroke-width="0" stroke-linecap="square" stroke-linejoin="bevel" d="M13.9188 3.35169C13.6322 2.53916 13.9163 3.30357 13.4569 2.41395C11.7492 1.56806 9.21135 1.08208 6.76992 0C-4.9548 7.06676 -0.775488 21.9098 14.1097 15.8887C14.8474 17.2293 15.2999 18.1061 15.4673 18.5191L18.9251 11.5188C18.6472 10.9779 18.9191 11.5004 18.4888 10.7033C15.1231 11.6451 13.6029 11.208 11.3992 9.98706C11.2639 10.8263 11.3865 10.0643 11.2671 10.8399C11.558 11.4655 12.1308 12.3989 12.9854 13.6401C4.69499 13.7385 5.84547 5.84566 13.9188 3.35169Z" sodipodi:nodetypes="ccccccccccc"/>
  <path id="shape1" transform="translate(5.73256310666996, 5.12028581980687)" fill="#ffffff" fill-rule="evenodd" stroke-opacity="0" stroke="#000000" stroke-width="0" stroke-linecap="square" stroke-linejoin="bevel" d="M13.9188 3.35169C9.44216 0.992808 10.1259 1.48742 6.76992 0C-4.9548 7.06676 -0.775487 21.9098 14.1097 15.8887C14.8474 17.2293 15.2999 18.1061 15.4673 18.5191L18.9251 11.5188L11.2671 10.8399C11.558 11.4655 12.1308 12.3989 12.9854 13.6401C4.69499 13.7385 5.84547 5.84566 13.9188 3.35169Z" sodipodi:nodetypes="cccccccc"/>
 </g><path id="shape02" transform="matrix(1.00000002235174 0 0 1.00000002235174 0.860000035602361 9.91200022155047)" fill="#000000" fill-rule="evenodd" stroke-opacity="0" stroke="#000000" stroke-width="0" stroke-linecap="square" stroke-linejoin="bevel" d="M3.682 0.14C3.10765 0.1224 2.54057 0.1141 1.98074 0.1151C1.42091 0.1161 0.95442 0.1203 0.58126 0.1276C0.208099 0.1348 0.014346 0.139 0 0.14C0.011375 0.7513 0.034125 1.28567 0.06825 1.743C0.102375 2.20033 0.121625 2.44067 0.126 2.464C0.53521 2.42608 0.87529 2.41092 1.14625 2.4185C1.41721 2.42608 1.55779 2.43192 1.568 2.436C1.5042 3.43292 1.44105 4.45958 1.37856 5.516C1.31607 6.57242 1.25905 7.55708 1.2075 8.47C1.15595 9.38292 1.11468 10.1226 1.08369 10.689C1.0527 11.2554 1.0368 11.5471 1.036 11.564C1.62488 11.5652 2.13763 11.5698 2.57425 11.578C3.01088 11.5862 3.24012 11.5908 3.262 11.592C3.28792 10.071 3.32358 8.62601 3.36897 7.25703C3.41436 5.88806 3.46095 4.67013 3.50875 3.60325C3.55655 2.53637 3.59702 1.69557 3.63016 1.08084C3.6633 0.4661 3.68058 0.1525 3.682 0.14M7.296 2.478C7.71142 2.46988 8.11569 2.47057 8.50881 2.48007C8.90194 2.48958 9.22739 2.50064 9.4852 2.51326C9.743 2.52588 9.8766 2.53279 9.886 2.534C9.8887 3.35023 9.8833 4.1669 9.87 4.984C9.8567 5.8011 9.8405 6.55127 9.8212 7.2345C9.802 7.91773 9.7849 8.46665 9.7698 8.88125C9.7548 9.29585 9.7468 9.50877 9.746 9.52C9.02325 9.506 8.45275 9.4955 8.0345 9.4885C7.61625 9.4815 7.40275 9.478 7.394 9.478C7.38671 8.72273 7.37767 7.94077 7.36687 7.13212C7.35608 6.32348 7.34529 5.56777 7.3345 4.865C7.32371 4.16223 7.31467 3.59202 7.30738 3.15437C7.30008 2.71673 7.29629 2.49127 7.296 2.478M11.72 9.604C11.7598 8.7636 11.8062 7.92878 11.8593 7.09953C11.9125 6.27029 11.9646 5.51203 12.0157 4.82475C12.0669 4.13747 12.1094 3.58659 12.1433 3.17209C12.1772 2.7576 12.1947 2.5449 12.196 2.534C11.885 2.0796 11.5784 1.66151 11.2761 1.2797C10.9739 0.8979 10.7223 0.5908 10.5212 0.3583C10.3201 0.1258 10.2157 0.0064 10.208 0C9.32396 0.0184 8.58604 0.0236 7.99425 0.0158C7.40246 0.0079 7.09504 0.0026 7.072 0C6.70826 0.3906 6.37796 0.7652 6.08111 1.12363C5.78426 1.4821 5.5473 1.77679 5.37022 2.0077C5.19315 2.23862 5.10241 2.35805 5.098 2.366C5.14432 3.68347 5.18079 4.87675 5.20741 5.94585C5.23402 7.01495 5.25286 7.86705 5.26393 8.50215C5.27499 9.13725 5.28035 9.46253 5.28 9.478C5.60494 9.87804 5.92262 10.2322 6.23304 10.5404C6.54346 10.8487 6.80099 11.0909 7.00563 11.2669C7.21027 11.4429 7.3164 11.5326 7.324 11.536C8.14067 11.5634 8.76833 11.5821 9.207 11.592C9.6457 11.6019 9.8673 11.6066 9.872 11.606C10.3471 11.051 10.7689 10.5825 11.1373 10.2008C11.5056 9.81896 11.6999 9.62004 11.72 9.604" sodipodi:nodetypes="ccccccccccccccccccccccccccccccccccccccccccccccccccccccc"/>
</svg>
