<?xml version="1.0" standalone="no"?>
<!DOCTYPE svg PUBLIC "-//W3C//DTD SVG 20010904//EN" "http://www.w3.org/TR/2001/REC-SVG-20010904/DTD/svg10.dtd">
<!-- Created using Krita: https://krita.org -->
<svg xmlns="http://www.w3.org/2000/svg" 
    xmlns:xlink="http://www.w3.org/1999/xlink"
    xmlns:krita="http://krita.org/namespaces/svg/krita"
    xmlns:sodipodi="http://sodipodi.sourceforge.net/DTD/sodipodi-0.dtd"
    width="30.72pt"
    height="30.72pt"
    viewBox="0 0 30.72 30.72">
<defs>
  <linearGradient id="gradient0" gradientUnits="objectBoundingBox" x1="0.499999999999997" y1="0" x2="0.499999999999997" y2="1" spreadMethod="pad">
   <stop stop-color="#ffbb00" offset="0" stop-opacity="1"/>
   <stop stop-color="#ffee00" offset="1" stop-opacity="1"/>
  </linearGradient>
  <linearGradient id="gradient1" gradientUnits="objectBoundingBox" x1="0.500000079774274" y1="-0.00478255952782813" x2="0.500000079774274" y2="0.997608720236086" spreadMethod="pad">
   <stop stop-color="#ffee00" offset="0" stop-opacity="1"/>
   <stop stop-color="#ffbb00" offset="1" stop-opacity="1"/>
  </linearGradient>
  <linearGradient id="gradient2" gradientUnits="objectBoundingBox" x1="0.5" y1="-0.0010000000452863" x2="0.5" y2="1.00200000009057" spreadMethod="pad">
   <stop stop-color="#ffee00" offset="0" stop-opacity="1"/>
   <stop stop-color="#ffbb00" offset="1" stop-opacity="1"/>
  </linearGradient>
  <linearGradient id="gradient3" gradientUnits="objectBoundingBox" x1="0.500000079774274" y1="-0.00478255952782813" x2="0.500000079774274" y2="0.997608720236086" spreadMethod="pad">
   <stop stop-color="#ffee00" offset="0" stop-opacity="1"/>
   <stop stop-color="#ffbb00" offset="1" stop-opacity="1"/>
  </linearGradient>
 </defs>
<g id="group0" transform="matrix(0.335029356557623 0 0 0.335029356557623 15.9704399689694 8.37212547327257)" fill="none">
  <circle id="shape0" transform="matrix(0.926999916850675 0 0 0.926999916850675 2.67571161209749 2.6757116120975)" r="19.6135805716893" cx="19.6135805716893" cy="19.6135805716893" fill="url(#gradient0)" fill-rule="evenodd" stroke-opacity="0.2" stroke="#000000" stroke-width="2.52" stroke-linecap="square" stroke-linejoin="bevel"/>
  <path id="shape01" transform="matrix(0.999999960263572 0 0 0.999999960263572 8.22560168853899 12.9275004191673)" fill="url(#gradient1)" fill-rule="evenodd" stroke-opacity="0.2" stroke="#000000" stroke-width="1.08" stroke-linecap="square" stroke-linejoin="bevel" d="M20.806 5.2206L20.7924 4.9311L20.7524 4.6489L20.6871 4.3751L20.5978 4.1108L20.4856 3.8572L20.3516 3.6153L20.1972 3.3863L20.0233 3.1714L19.8313 2.9716L19.6222 2.7881L19.3973 2.6219L19.1577 2.4743L18.9046 2.3463L18.6392 2.239L18.3627 2.1537L18.0762 2.0913L17.7809 2.053L17.478 2.04L17.175 2.053L16.8797 2.0913L16.5931 2.1537L16.3166 2.239L16.0512 2.3463L15.7981 2.4743L15.5585 2.6219L15.3336 2.7881L15.1245 2.9716L14.9324 3.1714L14.7586 3.3863L14.6041 3.6153L14.4702 3.8572L14.3579 4.1108L14.2686 4.3751L14.2033 4.6489L14.1633 4.9311L14.1497 5.2206L14.1633 5.5101L14.2033 5.7923L14.2686 6.0661L14.3579 6.3304L14.4702 6.584L14.6041 6.8259L14.7586 7.0549L14.9324 7.2698L15.1245 7.4696L15.3336 7.6531L15.5585 7.8193L15.7981 7.9669L16.0512 8.0949L16.3166 8.2022L16.5931 8.2875L16.8797 8.3499L17.175 8.3882L17.478 8.4012L17.7809 8.3882L18.0762 8.3499L18.3627 8.2875L18.6392 8.2022L18.9046 8.0949L19.1577 7.9669L19.3973 7.8193L19.6222 7.6531L19.8313 7.4696L20.0233 7.2698L20.1972 7.0549L20.3516 6.8259L20.4856 6.584L20.5978 6.3304L20.6871 6.0661L20.7524 5.7923L20.7924 5.5101L20.806 5.2206M11.1284 5.2395L11.1148 4.95L11.0747 4.6678L11.0095 4.394L10.9201 4.1297L10.8079 3.8761L10.6739 3.6342L10.5194 3.4053L10.3456 3.1903L10.1535 2.9905L9.9444 2.807L9.7195 2.6408L9.4799 2.4932L9.2268 2.3652L8.9614 2.258L8.6849 2.1726L8.3984 2.1102L8.103 2.072L7.8001 2.059L7.4972 2.072L7.2019 2.1102L6.9154 2.1726L6.6388 2.258L6.3735 2.3652L6.1204 2.4932L5.8808 2.6408L5.6559 2.807L5.4468 2.9905L5.2548 3.1903L5.0809 3.4053L4.9264 3.6342L4.7925 3.8761L4.6803 4.1297L4.5909 4.394L4.5257 4.6678L4.4857 4.95L4.4721 5.2395L4.4857 5.529L4.5257 5.8112L4.5909 6.085L4.6803 6.3492L4.7925 6.6029L4.9264 6.8447L5.0809 7.0736L5.2548 7.2886L5.4468 7.4884L5.6559 7.6719L5.8808 7.838L6.1204 7.9857L6.3735 8.1137L6.6388 8.2209L6.9154 8.3063L7.2019 8.3687L7.4972 8.4069L7.8001 8.4199L8.103 8.4069L8.3984 8.3687L8.6849 8.3063L8.9614 8.2209L9.2268 8.1137L9.4799 7.9857L9.7195 7.838L9.9444 7.6719L10.1535 7.4884L10.3456 7.2886L10.5194 7.0736L10.6739 6.8447L10.8079 6.6029L10.9201 6.3492L11.0095 6.085L11.0747 5.8112L11.1148 5.529L11.1284 5.2395M11.6083 1.42L11.2907 1.1946L10.8582 0.9308L10.4081 0.6977L9.9417 0.497L9.4602 0.3296L8.9651 0.1972L8.4573 0.1009L7.9382 0.0421L7.409 0.0222L6.8799 0.0421L6.361 0.1009L5.8532 0.1972L5.3578 0.3296L4.8763 0.497L4.4101 0.6977L3.96 0.9308L3.5275 1.1946L3.1138 1.4879L2.7201 1.8094L2.3479 2.1579L1.9982 2.5315L1.6722 2.9295L1.3715 3.3503L1.0971 3.7924L0.8501 4.2545L0.6321 4.7356L0.4442 5.2341L0.2878 5.7488L0.1639 6.2781L0.0737 6.8208L0.0188 7.3755L0 7.941L0.0188 8.5067L0.0737 9.0615L0.1639 9.6041L0.2878 10.1335L0.4442 10.6481L0.6321 11.1466L0.8501 11.6275L1.0971 12.0899L1.3715 12.532L1.6722 12.9528L1.9982 13.3507L2.3479 13.7244L2.7201 14.0728L3.1138 14.3942L3.5275 14.6877L3.96 14.9515L4.4101 15.1845L4.8763 15.3853L5.3578 15.5526L5.8532 15.6851L6.361 15.7814L6.8799 15.8402L7.409 15.86L7.9382 15.8402L8.4573 15.7814L8.9651 15.6851L9.4602 15.5526L9.9417 15.3853L10.4081 15.1845L10.8582 14.9515L11.2907 14.6877L11.5241 14.522L13.764 14.517L13.9733 14.6654L14.4058 14.9292L14.8559 15.1623L15.3221 15.363L15.8035 15.5304L16.2989 15.6628L16.8067 15.7591L17.3256 15.8179L17.8548 15.8378L18.3839 15.8179L18.903 15.7591L19.4108 15.6628L19.906 15.5304L20.3875 15.363L20.8539 15.1623L21.304 14.9292L21.7364 14.6654L22.15 14.3719L22.5437 14.0506L22.9161 13.7021L23.2658 13.3285L23.5916 12.9305L23.8923 12.5097L24.1669 12.0676L24.4137 11.6053L24.6317 11.1244L24.8196 10.6259L24.9762 10.1112L25.1001 9.5819L25.1903 9.0392L25.2452 8.4845L25.2638 7.9188L25.2452 7.3533L25.1903 6.7985L25.1001 6.2559L24.9762 5.7265L24.8196 5.2119L24.6317 4.7134L24.4137 4.2325L24.1669 3.7701L23.8923 3.328L23.5916 2.9072L23.2658 2.5093L22.9161 2.1356L22.5437 1.7872L22.15 1.4656L21.7364 1.1723L21.304 0.9085L20.8539 0.6755L20.3875 0.4747L19.906 0.3074L19.4108 0.1749L18.903 0.0786L18.3839 0.0198L17.8548 0L17.3256 0.0198L16.8067 0.0786L16.2989 0.1749L15.8035 0.3074L15.3221 0.4747L14.8559 0.6755L14.4058 0.9085L13.9733 1.1723L13.638 1.41L11.6083 1.42M23.8252 7.2922L23.8008 6.7214L23.7298 6.1648L23.6136 5.6247L23.4548 5.1035L23.2552 4.6033L23.0172 4.1263L22.7424 3.6748L22.4331 3.251L22.0917 2.8569L21.7199 2.495L21.3199 2.1673L20.894 1.876L20.4439 1.6237L19.9719 1.4122L19.48 1.2437L18.9706 1.1207L18.4455 1.0454L17.9067 1.0198L17.3681 1.0454L16.8429 1.1207L16.3334 1.2437L15.8418 1.4122L15.3698 1.6237L14.9197 1.876L14.4937 2.1673L14.0937 2.495L13.7219 2.8569L13.3803 3.251L13.0712 3.6748L12.7965 4.1263L12.6011 4.5178L12.3718 4.0586L12.097 3.607L11.7879 3.1833L11.4464 2.7892L11.0746 2.4272L10.6745 2.0996L10.2486 1.8083L9.7985 1.556L9.3265 1.3445L8.8348 1.176L8.3254 1.053L7.8001 0.9777L7.2615 0.9519L6.7227 0.9777L6.1977 1.053L5.6882 1.176L5.1964 1.3445L4.7244 1.556L4.2745 1.8083L3.8483 2.0996L3.4483 2.4272L3.0767 2.7892L2.7351 3.1833L2.4259 3.607L2.1513 4.0586L1.913 4.5356L1.7134 5.0358L1.5546 5.557L1.4385 6.097L1.3674 6.6536L1.3431 7.2245L1.3674 7.7954L1.4385 8.352L1.5546 8.8921L1.7134 9.4132L1.913 9.9134L2.1513 10.3904L2.4259 10.842L2.7351 11.2657L3.0767 11.6598L3.4483 12.0218L3.8483 12.3494L4.2745 12.6407L4.7244 12.893L5.1964 13.1045L5.6882 13.273L6.1977 13.396L6.7227 13.4713L7.2615 13.4971L7.8001 13.4713L8.3254 13.396L8.8348 13.273L9.3265 13.1045L9.7985 12.893L10.2486 12.6407L10.6745 12.3494L11.0746 12.0218L11.4464 11.6598L11.7879 11.2657L12.097 10.842L12.3718 10.3904L12.5671 9.9989L12.7965 10.4581L13.0712 10.9097L13.3803 11.3335L13.7219 11.7275L14.0937 12.0895L14.4937 12.4172L14.9197 12.7084L15.3698 12.9608L15.8418 13.1723L16.3334 13.3407L16.8429 13.4637L17.3681 13.5391L17.9067 13.5648L18.4455 13.5391L18.9706 13.4637L19.48 13.3407L19.9719 13.1723L20.4439 12.9608L20.894 12.7084L21.3199 12.4172L21.7199 12.0895L22.0917 11.7275L22.4331 11.3335L22.7424 10.9097L23.0172 10.4581L23.2552 9.9811L23.4548 9.4809L23.6136 8.9598L23.7298 8.4197L23.8008 7.8631L23.8252 7.2922" sodipodi:nodetypes="cccccccccccccccccccccccccccccccccccccccccccccccccccccccccccccccccccccccccccccccccccccccccccccccccccccccccccccccccccccccccccccccccccccccccccccccccccccccccccccccccccccccccccccccccccccccccccccccccccccccccccccccccccccccccccccccccccccccccccccccccccccccccccccccccccccccccccccccccccccccccccccccccccccccccccccccccccccccccccccccccccccccccccccccccccccccccccccccccccccccccccccccccccccccccccccccccccccccccccccccccc"/>
  <path id="shape1" transform="matrix(0.999999960263572 0 0 0.999999960263572 -4.44089209850063e-16 -4.44089209850063e-16)" fill="url(#gradient2)" fill-rule="evenodd" stroke-opacity="0" stroke="#000000" stroke-width="0" stroke-linecap="square" stroke-linejoin="bevel" d="M41.715 20.8575L41.708 20.3106L41.687 19.7672L41.6522 19.2275L41.6039 18.6916L41.5421 18.1596L41.4671 17.6318L41.379 17.1083L41.2779 16.5894L41.1641 16.0751L41.0378 15.5656L40.899 15.0612L40.7481 14.5619L40.585 14.068L40.4101 13.5796L40.2235 13.097L40.0253 12.6202L39.8158 12.1494L39.595 11.6849L39.3633 11.2268L39.1206 10.7752L38.8673 10.3303L38.6035 9.8924L38.3294 9.4615L38.0451 9.0379L37.7508 8.6217L37.4466 8.2131L37.1328 7.8122L36.8096 7.41928L36.477 7.03446L36.1353 6.65793L35.7846 6.28984L35.4252 5.93038L35.0571 5.5797L34.6805 5.23799L34.2957 4.90542L33.9028 4.58216L33.5019 4.26837L33.0933 3.96424L32.6771 3.66993L32.2535 3.38562L31.8226 3.11147L31.3847 2.84766L30.9398 2.59436L30.4882 2.35174L30.0301 2.11998L29.5656 1.89924L29.0948 1.6897L28.618 1.49153L28.1354 1.3049L27.647 1.12998L27.1531 0.96694L26.6538 0.81596L26.1494 0.67721L25.6399 0.55086L25.1256 0.43708L24.6067 0.33604L24.0832 0.24792L23.5554 0.17288L23.0234 0.1111L22.4875 0.06275L21.9477 0.028L21.4044 0.00703L20.8575 0L20.3106 0.00703L19.7672 0.028L19.2275 0.06275L18.6916 0.1111L18.1596 0.17288L17.6318 0.24792L17.1083 0.33604L16.5894 0.43708L16.0751 0.55086L15.5656 0.67721L15.0612 0.81596L14.5619 0.96694L14.068 1.12998L13.5796 1.3049L13.097 1.49153L12.6202 1.6897L12.1494 1.89924L11.6849 2.11998L11.2268 2.35174L10.7752 2.59436L10.3303 2.84766L9.8924 3.11147L9.4615 3.38562L9.0379 3.66993L8.6217 3.96424L8.2131 4.26837L7.8122 4.58216L7.41928 4.90542L7.03446 5.23799L6.65793 5.5797L6.28984 5.93038L5.93038 6.28984L5.5797 6.65793L5.23799 7.03446L4.90542 7.41928L4.58216 7.8122L4.26837 8.2131L3.96424 8.6217L3.66993 9.0379L3.38562 9.4615L3.11147 9.8924L2.84766 10.3303L2.59436 10.7752L2.35174 11.2268L2.11998 11.6849L1.89924 12.1494L1.6897 12.6202L1.49153 13.097L1.3049 13.5796L1.12998 14.068L0.96694 14.5619L0.81596 15.0612L0.67721 15.5656L0.55086 16.0751L0.43708 16.5894L0.33604 17.1083L0.24792 17.6318L0.17288 18.1596L0.1111 18.6916L0.06275 19.2275L0.028 19.7672L0.00703 20.3106L0 20.8575L0.00703 21.4044L0.028 21.9477L0.06275 22.4875L0.1111 23.0234L0.17288 23.5554L0.24792 24.0832L0.33604 24.6067L0.43708 25.1256L0.55086 25.6399L0.67721 26.1494L0.81596 26.6538L0.96694 27.1531L1.12998 27.647L1.3049 28.1354L1.49153 28.618L1.6897 29.0948L1.89924 29.5656L2.11998 30.0301L2.35174 30.4882L2.59436 30.9398L2.84766 31.3847L3.11147 31.8226L3.38562 32.2535L3.66993 32.6771L3.96424 33.0933L4.26837 33.5019L4.58216 33.9028L4.90542 34.2957L5.23799 34.6805L5.5797 35.0571L5.93038 35.4252L6.28984 35.7846L6.65793 36.1353L7.03446 36.477L7.41928 36.8096L7.8122 37.1328L8.2131 37.4466L8.6217 37.7508L9.0379 38.0451L9.4615 38.3294L9.8924 38.6035L10.3303 38.8673L10.7752 39.1206L11.2268 39.3633L11.6849 39.595L12.1494 39.8158L12.6202 40.0253L13.097 40.2235L13.5796 40.4101L14.068 40.585L14.5619 40.7481L15.0612 40.899L15.5656 41.0378L16.0751 41.1641L16.5894 41.2779L17.1083 41.379L17.6318 41.4671L18.1596 41.5421L18.6916 41.6039L19.2275 41.6522L19.7672 41.687L20.3106 41.708L20.8575 41.715L21.4044 41.708L21.9477 41.687L22.4875 41.6522L23.0234 41.6039L23.5554 41.5421L24.0832 41.4671L24.6067 41.379L25.1256 41.2779L25.6399 41.1641L26.1494 41.0378L26.6538 40.899L27.1531 40.7481L27.647 40.585L28.1354 40.4101L28.618 40.2235L29.0948 40.0253L29.5656 39.8158L30.0301 39.595L30.4882 39.3633L30.9398 39.1206L31.3847 38.8673L31.8226 38.6035L32.2535 38.3294L32.6771 38.0451L33.0933 37.7508L33.5019 37.4466L33.9028 37.1328L34.2957 36.8096L34.6805 36.477L35.0571 36.1353L35.4252 35.7846L35.7846 35.4252L36.1353 35.0571L36.477 34.6805L36.8096 34.2957L37.1328 33.9028L37.4466 33.5019L37.7508 33.0933L38.0451 32.6771L38.3294 32.2535L38.6035 31.8226L38.8673 31.3847L39.1206 30.9398L39.3633 30.4882L39.595 30.0301L39.8158 29.5656L40.0253 29.0948L40.2235 28.618L40.4101 28.1354L40.585 27.647L40.7481 27.1531L40.899 26.6538L41.0378 26.1494L41.1641 25.6399L41.2779 25.1256L41.379 24.6067L41.4671 24.0832L41.5421 23.5554L41.6039 23.0234L41.6522 22.4875L41.687 21.9477L41.708 21.4044L41.715 20.8575M38.7949 20.8575L38.7889 20.3872L38.7709 19.9199L38.741 19.4557L38.6994 18.9948L38.6463 18.5373L38.5817 18.0834L38.506 17.6332L38.4191 17.1869L38.3212 16.7446L38.2125 16.3065L38.0932 15.8727L37.9634 15.4433L37.8232 15.0185L37.6727 14.5985L37.5122 14.1834L37.3418 13.7734L37.1616 13.3686L36.9718 12.9691L36.7724 12.5751L36.5638 12.1867L36.346 11.8041L36.1191 11.4275L35.8833 11.0569L35.6388 10.6926L35.3857 10.3347L35.1241 9.9833L34.8543 9.6385L34.5763 9.3006L34.2903 8.9697L33.9964 8.6459L33.6948 8.3293L33.3857 8.0202L33.0691 7.7186L32.7453 7.42473L32.4144 7.13871L32.0765 6.86071L31.7317 6.59085L31.3803 6.3293L31.0224 6.07619L30.6581 5.83168L30.2875 5.59592L29.9109 5.36904L29.5283 5.1512L29.1399 4.94255L28.7459 4.74323L28.3464 4.5534L27.9416 4.37319L27.5316 4.20277L27.1165 4.04226L26.6965 3.89183L26.2717 3.75162L25.8423 3.62178L25.4085 3.50246L24.9704 3.39379L24.5281 3.29594L24.0818 3.20905L23.6316 3.13326L23.1777 3.06873L22.7202 3.0156L22.2593 2.97402L21.7951 2.94414L21.3278 2.9261L20.8575 2.92005L20.3872 2.9261L19.9199 2.94414L19.4557 2.97402L18.9948 3.0156L18.5373 3.06873L18.0834 3.13326L17.6332 3.20905L17.1869 3.29594L16.7446 3.39379L16.3065 3.50246L15.8727 3.62178L15.4433 3.75162L15.0185 3.89183L14.5985 4.04226L14.1834 4.20277L13.7734 4.37319L13.3686 4.5534L12.9691 4.74323L12.5751 4.94255L12.1867 5.1512L11.8041 5.36904L11.4275 5.59592L11.0569 5.83168L10.6926 6.07619L10.3347 6.3293L9.9833 6.59085L9.6385 6.86071L9.3006 7.13871L8.9697 7.42473L8.6459 7.7186L8.3293 8.0202L8.0202 8.3293L7.7186 8.6459L7.42473 8.9697L7.13871 9.3006L6.86071 9.6385L6.59085 9.9833L6.3293 10.3347L6.07619 10.6926L5.83168 11.0569L5.59592 11.4275L5.36904 11.8041L5.1512 12.1867L4.94255 12.5751L4.74323 12.9691L4.5534 13.3686L4.37319 13.7734L4.20277 14.1834L4.04226 14.5985L3.89183 15.0185L3.75162 15.4433L3.62178 15.8727L3.50246 16.3065L3.39379 16.7446L3.29594 17.1869L3.20905 17.6332L3.13326 18.0834L3.06873 18.5373L3.0156 18.9948L2.97402 19.4557L2.94414 19.9199L2.9261 20.3872L2.92005 20.8575L2.9261 21.3278L2.94414 21.7951L2.97402 22.2593L3.0156 22.7202L3.06873 23.1777L3.13326 23.6316L3.20905 24.0818L3.29594 24.5281L3.39379 24.9704L3.50246 25.4085L3.62178 25.8423L3.75162 26.2717L3.89183 26.6965L4.04226 27.1165L4.20277 27.5316L4.37319 27.9416L4.5534 28.3464L4.74323 28.7459L4.94255 29.1399L5.1512 29.5283L5.36904 29.9109L5.59592 30.2875L5.83168 30.6581L6.07619 31.0224L6.3293 31.3803L6.59085 31.7317L6.86071 32.0765L7.13871 32.4144L7.42473 32.7453L7.7186 33.0691L8.0202 33.3857L8.3293 33.6948L8.6459 33.9964L8.9697 34.2903L9.3006 34.5763L9.6385 34.8543L9.9833 35.1241L10.3347 35.3857L10.6926 35.6388L11.0569 35.8833L11.4275 36.1191L11.8041 36.346L12.1867 36.5638L12.5751 36.7724L12.9691 36.9718L13.3686 37.1616L13.7734 37.3418L14.1834 37.5122L14.5985 37.6727L15.0185 37.8232L15.4433 37.9634L15.8727 38.0932L16.3065 38.2125L16.7446 38.3212L17.1869 38.4191L17.6332 38.506L18.0834 38.5817L18.5373 38.6463L18.9948 38.6994L19.4557 38.741L19.9199 38.7709L20.3872 38.7889L20.8575 38.7949L21.3278 38.7889L21.7951 38.7709L22.2593 38.741L22.7202 38.6994L23.1777 38.6463L23.6316 38.5817L24.0818 38.506L24.5281 38.4191L24.9704 38.3212L25.4085 38.2125L25.8423 38.0932L26.2717 37.9634L26.6965 37.8232L27.1165 37.6727L27.5316 37.5122L27.9416 37.3418L28.3464 37.1616L28.7459 36.9718L29.1399 36.7724L29.5283 36.5638L29.9109 36.346L30.2875 36.1191L30.6581 35.8833L31.0224 35.6388L31.3803 35.3857L31.7317 35.1241L32.0765 34.8543L32.4144 34.5763L32.7453 34.2903L33.0691 33.9964L33.3857 33.6948L33.6948 33.3857L33.9964 33.0691L34.2903 32.7453L34.5763 32.4144L34.8543 32.0765L35.1241 31.7317L35.3857 31.3803L35.6388 31.0224L35.8833 30.6581L36.1191 30.2875L36.346 29.9109L36.5638 29.5283L36.7724 29.1399L36.9718 28.7459L37.1616 28.3464L37.3418 27.9416L37.5122 27.5316L37.6727 27.1165L37.8232 26.6965L37.9634 26.2717L38.0932 25.8423L38.2125 25.4085L38.3212 24.9704L38.4191 24.5281L38.506 24.0818L38.5817 23.6316L38.6463 23.1777L38.6994 22.7202L38.741 22.2593L38.7709 21.7951L38.7889 21.3278L38.7949 20.8575" sodipodi:nodetypes="cccccccccccccccccccccccccccccccccccccccccccccccccccccccccccccccccccccccccccccccccccccccccccccccccccccccccccccccccccccccccccccccccccccccccccccccccccccccccccccccccccccccccccccccccccccccccccccccccccccccccccccccccccccccccccccccccccccccccccccccccccccccccccccccccccccccccccccccccccccccccccccccccccccccccccccccccccccccccccccccccccccccccccccccccccccccccccccccccccccccccccccccccccccccccccccccccccccccccccccccccccccccccccccccccccccccccccccccccccccccccccccccccccccccccccccccccccccccccccccccccccccccccccccccccccccccccc"/>
  <path id="shape01" transform="matrix(0.999999959975198 0 0 0.999999959975198 8.22559967678673 12.9274994885941)" fill="url(#gradient3)" fill-rule="evenodd" stroke-opacity="0" stroke="#000000" stroke-width="0" stroke-linecap="square" stroke-linejoin="bevel" d="M20.806 5.2206L20.7924 4.9311L20.7524 4.6489L20.6871 4.3751L20.5978 4.1108L20.4856 3.8572L20.3516 3.6153L20.1972 3.3863L20.0233 3.1714L19.8313 2.9716L19.6222 2.7881L19.3973 2.6219L19.1577 2.4743L18.9046 2.3463L18.6392 2.239L18.3627 2.1537L18.0762 2.0913L17.7809 2.053L17.478 2.04L17.175 2.053L16.8797 2.0913L16.5931 2.1537L16.3166 2.239L16.0512 2.3463L15.7981 2.4743L15.5585 2.6219L15.3336 2.7881L15.1245 2.9716L14.9324 3.1714L14.7586 3.3863L14.6041 3.6153L14.4702 3.8572L14.3579 4.1108L14.2686 4.3751L14.2033 4.6489L14.1633 4.9311L14.1497 5.2206L14.1633 5.5101L14.2033 5.7923L14.2686 6.0661L14.3579 6.3304L14.4702 6.584L14.6041 6.8259L14.7586 7.0549L14.9324 7.2698L15.1245 7.4696L15.3336 7.6531L15.5585 7.8193L15.7981 7.9669L16.0512 8.0949L16.3166 8.2022L16.5931 8.2875L16.8797 8.3499L17.175 8.3882L17.478 8.4012L17.7809 8.3882L18.0762 8.3499L18.3627 8.2875L18.6392 8.2022L18.9046 8.0949L19.1577 7.9669L19.3973 7.8193L19.6222 7.6531L19.8313 7.4696L20.0233 7.2698L20.1972 7.0549L20.3516 6.8259L20.4856 6.584L20.5978 6.3304L20.6871 6.0661L20.7524 5.7923L20.7924 5.5101L20.806 5.2206M11.1284 5.2395L11.1148 4.95L11.0747 4.6678L11.0095 4.394L10.9201 4.1297L10.8079 3.8761L10.6739 3.6342L10.5194 3.4053L10.3456 3.1903L10.1535 2.9905L9.9444 2.807L9.7195 2.6408L9.4799 2.4932L9.2268 2.3652L8.9614 2.258L8.6849 2.1726L8.3984 2.1102L8.103 2.072L7.8001 2.059L7.4972 2.072L7.2019 2.1102L6.9154 2.1726L6.6388 2.258L6.3735 2.3652L6.1204 2.4932L5.8808 2.6408L5.6559 2.807L5.4468 2.9905L5.2548 3.1903L5.0809 3.4053L4.9264 3.6342L4.7925 3.8761L4.6803 4.1297L4.5909 4.394L4.5257 4.6678L4.4857 4.95L4.4721 5.2395L4.4857 5.529L4.5257 5.8112L4.5909 6.085L4.6803 6.3492L4.7925 6.6029L4.9264 6.8447L5.0809 7.0736L5.2548 7.2886L5.4468 7.4884L5.6559 7.6719L5.8808 7.838L6.1204 7.9857L6.3735 8.1137L6.6388 8.2209L6.9154 8.3063L7.2019 8.3687L7.4972 8.4069L7.8001 8.4199L8.103 8.4069L8.3984 8.3687L8.6849 8.3063L8.9614 8.2209L9.2268 8.1137L9.4799 7.9857L9.7195 7.838L9.9444 7.6719L10.1535 7.4884L10.3456 7.2886L10.5194 7.0736L10.6739 6.8447L10.8079 6.6029L10.9201 6.3492L11.0095 6.085L11.0747 5.8112L11.1148 5.529L11.1284 5.2395M11.6083 1.42L11.2907 1.1946L10.8582 0.9308L10.4081 0.6977L9.9417 0.497L9.4602 0.3296L8.9651 0.1972L8.4573 0.1009L7.9382 0.0421L7.409 0.0222L6.8799 0.0421L6.361 0.1009L5.8532 0.1972L5.3578 0.3296L4.8763 0.497L4.4101 0.6977L3.96 0.9308L3.5275 1.1946L3.1138 1.4879L2.7201 1.8094L2.3479 2.1579L1.9982 2.5315L1.6722 2.9295L1.3715 3.3503L1.0971 3.7924L0.8501 4.2545L0.6321 4.7356L0.4442 5.2341L0.2878 5.7488L0.1639 6.2781L0.0737 6.8208L0.0188 7.3755L0 7.941L0.0188 8.5067L0.0737 9.0615L0.1639 9.6041L0.2878 10.1335L0.4442 10.6481L0.6321 11.1466L0.8501 11.6275L1.0971 12.0899L1.3715 12.532L1.6722 12.9528L1.9982 13.3507L2.3479 13.7244L2.7201 14.0728L3.1138 14.3942L3.5275 14.6877L3.96 14.9515L4.4101 15.1845L4.8763 15.3853L5.3578 15.5526L5.8532 15.6851L6.361 15.7814L6.8799 15.8402L7.409 15.86L7.9382 15.8402L8.4573 15.7814L8.9651 15.6851L9.4602 15.5526L9.9417 15.3853L10.4081 15.1845L10.8582 14.9515L11.2907 14.6877L11.5241 14.522L13.764 14.517L13.9733 14.6654L14.4058 14.9292L14.8559 15.1623L15.3221 15.363L15.8035 15.5304L16.2989 15.6628L16.8067 15.7591L17.3256 15.8179L17.8548 15.8378L18.3839 15.8179L18.903 15.7591L19.4108 15.6628L19.906 15.5304L20.3875 15.363L20.8539 15.1623L21.304 14.9292L21.7364 14.6654L22.15 14.3719L22.5437 14.0506L22.9161 13.7021L23.2658 13.3285L23.5916 12.9305L23.8923 12.5097L24.1669 12.0676L24.4137 11.6053L24.6317 11.1244L24.8196 10.6259L24.9762 10.1112L25.1001 9.5819L25.1903 9.0392L25.2452 8.4845L25.2638 7.9188L25.2452 7.3533L25.1903 6.7985L25.1001 6.2559L24.9762 5.7265L24.8196 5.2119L24.6317 4.7134L24.4137 4.2325L24.1669 3.7701L23.8923 3.328L23.5916 2.9072L23.2658 2.5093L22.9161 2.1356L22.5437 1.7872L22.15 1.4656L21.7364 1.1723L21.304 0.9085L20.8539 0.6755L20.3875 0.4747L19.906 0.3074L19.4108 0.1749L18.903 0.0786L18.3839 0.0198L17.8548 0L17.3256 0.0198L16.8067 0.0786L16.2989 0.1749L15.8035 0.3074L15.3221 0.4747L14.8559 0.6755L14.4058 0.9085L13.9733 1.1723L13.638 1.41L11.6083 1.42M23.8252 7.2922L23.8008 6.7214L23.7298 6.1648L23.6136 5.6247L23.4548 5.1035L23.2552 4.6033L23.0172 4.1263L22.7424 3.6748L22.4331 3.251L22.0917 2.8569L21.7199 2.495L21.3199 2.1673L20.894 1.876L20.4439 1.6237L19.9719 1.4122L19.48 1.2437L18.9706 1.1207L18.4455 1.0454L17.9067 1.0198L17.3681 1.0454L16.8429 1.1207L16.3334 1.2437L15.8418 1.4122L15.3698 1.6237L14.9197 1.876L14.4937 2.1673L14.0937 2.495L13.7219 2.8569L13.3803 3.251L13.0712 3.6748L12.7965 4.1263L12.6011 4.5178L12.3718 4.0586L12.097 3.607L11.7879 3.1833L11.4464 2.7892L11.0746 2.4272L10.6745 2.0996L10.2486 1.8083L9.7985 1.556L9.3265 1.3445L8.8348 1.176L8.3254 1.053L7.8001 0.9777L7.2615 0.9519L6.7227 0.9777L6.1977 1.053L5.6882 1.176L5.1964 1.3445L4.7244 1.556L4.2745 1.8083L3.8483 2.0996L3.4483 2.4272L3.0767 2.7892L2.7351 3.1833L2.4259 3.607L2.1513 4.0586L1.913 4.5356L1.7134 5.0358L1.5546 5.557L1.4385 6.097L1.3674 6.6536L1.3431 7.2245L1.3674 7.7954L1.4385 8.352L1.5546 8.8921L1.7134 9.4132L1.913 9.9134L2.1513 10.3904L2.4259 10.842L2.7351 11.2657L3.0767 11.6598L3.4483 12.0218L3.8483 12.3494L4.2745 12.6407L4.7244 12.893L5.1964 13.1045L5.6882 13.273L6.1977 13.396L6.7227 13.4713L7.2615 13.4971L7.8001 13.4713L8.3254 13.396L8.8348 13.273L9.3265 13.1045L9.7985 12.893L10.2486 12.6407L10.6745 12.3494L11.0746 12.0218L11.4464 11.6598L11.7879 11.2657L12.097 10.842L12.3718 10.3904L12.5671 9.9989L12.7965 10.4581L13.0712 10.9097L13.3803 11.3335L13.7219 11.7275L14.0937 12.0895L14.4937 12.4172L14.9197 12.7084L15.3698 12.9608L15.8418 13.1723L16.3334 13.3407L16.8429 13.4637L17.3681 13.5391L17.9067 13.5648L18.4455 13.5391L18.9706 13.4637L19.48 13.3407L19.9719 13.1723L20.4439 12.9608L20.894 12.7084L21.3199 12.4172L21.7199 12.0895L22.0917 11.7275L22.4331 11.3335L22.7424 10.9097L23.0172 10.4581L23.2552 9.9811L23.4548 9.4809L23.6136 8.9598L23.7298 8.4197L23.8008 7.8631L23.8252 7.2922" sodipodi:nodetypes="cccccccccccccccccccccccccccccccccccccccccccccccccccccccccccccccccccccccccccccccccccccccccccccccccccccccccccccccccccccccccccccccccccccccccccccccccccccccccccccccccccccccccccccccccccccccccccccccccccccccccccccccccccccccccccccccccccccccccccccccccccccccccccccccccccccccccccccccccccccccccccccccccccccccccccccccccccccccccccccccccccccccccccccccccccccccccccccccccccccccccccccccccccccccccccccccccccccccccccccccccc"/>
 </g><path id="shape0" transform="translate(0.46970564034271, 19.824)" fill="#000000" fill-rule="evenodd" stroke-opacity="0" stroke="#000000" stroke-width="0" stroke-linecap="square" stroke-linejoin="bevel" d="M6.444 -7.668C6.16563 -7.96644 5.89437 -8.25489 5.63022 -8.53333C5.36607 -8.81178 5.14726 -9.04156 4.97378 -9.22267C4.8003 -9.40378 4.71037 -9.49756 4.704 -9.504C3.95125 -9.47375 3.33875 -9.45025 2.8665 -9.4335C2.39425 -9.41675 2.15075 -9.40825 2.136 -9.408C1.92104 -9.15533 1.69896 -8.89133 1.46978 -8.616C1.24059 -8.34067 1.04607 -8.106 0.886222 -7.912C0.72637 -7.718 0.642963 -7.61667 0.636 -7.608C0.659 -6.72875 0.673 -6.07825 0.678 -5.6565C0.683 -5.23475 0.685 -5.02525 0.684 -5.028C1.03422 -5.02874 1.36444 -5.03393 1.67467 -5.04356C1.98489 -5.05319 2.23778 -5.06281 2.43333 -5.07244C2.62889 -5.08207 2.72978 -5.08726 2.736 -5.088C2.67925 -5.893 2.62775 -6.5 2.5815 -6.909C2.53525 -7.318 2.51075 -7.523 2.508 -7.524C3.034 -7.51222 3.43533 -7.50378 3.712 -7.49867C3.98867 -7.49356 4.17667 -7.49044 4.276 -7.48933C4.37533 -7.48822 4.422 -7.48778 4.416 -7.488C4.36975 -6.41475 4.32125 -5.57325 4.2705 -4.9635C4.21975 -4.35375 4.19225 -4.04325 4.188 -4.032C3.683 -4.04775 3.262 -4.05225 2.925 -4.0455C2.588 -4.03875 2.413 -4.03425 2.4 -4.032C1.963 -3.5875 1.58 -3.2135 1.251 -2.91C0.922 -2.6065 0.749 -2.4485 0.732 -2.436C0.78 -1.93096 0.82 -1.45437 0.852 -1.00622C0.884 -0.558074 0.908 -0.192593 0.924 0.0902222C0.94 0.373037 0.948 0.518963 0.948 0.528C1.88193 0.536148 2.74607 0.543852 3.54044 0.551111C4.33481 0.55837 4.97585 0.564296 5.46356 0.568889C5.95126 0.573481 6.20207 0.575852 6.216 0.576C6.25775 0.09425 6.28825 -0.33125 6.3075 -0.7005C6.32675 -1.06975 6.33625 -1.26425 6.336 -1.284C5.67037 -1.244 5.0563 -1.21067 4.49378 -1.184C3.93126 -1.15733 3.47807 -1.13733 3.13422 -1.124C2.79037 -1.11067 2.61363 -1.104 2.604 -1.104C2.59178 -1.16867 2.58022 -1.30067 2.56933 -1.5C2.55844 -1.69933 2.54956 -1.89 2.54267 -2.072C2.53578 -2.254 2.53222 -2.35133 2.532 -2.364C3.004 -2.339 3.41 -2.317 3.75 -2.298C4.09 -2.279 4.268 -2.269 4.284 -2.268C4.7655 -2.69675 5.1705 -3.06625 5.499 -3.3765C5.8275 -3.68675 5.9985 -3.84925 6.012 -3.864C6.09667 -4.54941 6.17133 -5.17859 6.236 -5.75156C6.30067 -6.32452 6.35133 -6.78481 6.388 -7.13244C6.42467 -7.48007 6.44333 -7.65859 6.444 -7.668M9.448 -7.26C9.80407 -7.26696 10.1506 -7.26637 10.4876 -7.25822C10.8245 -7.25007 11.1035 -7.24059 11.3244 -7.22978C11.5454 -7.21896 11.6599 -7.21304 11.668 -7.212C11.6703 -6.51237 11.6657 -5.81238 11.6543 -5.112C11.6429 -4.41162 11.629 -3.76863 11.6125 -3.183C11.596 -2.59737 11.5813 -2.12688 11.5684 -1.7715C11.5555 -1.41613 11.5487 -1.23362 11.548 -1.224C10.9285 -1.236 10.4395 -1.245 10.081 -1.251C9.7225 -1.257 9.5395 -1.26 9.532 -1.26C9.52575 -1.90738 9.518 -2.57762 9.50875 -3.27075C9.4995 -3.96387 9.49025 -4.61163 9.481 -5.214C9.47175 -5.81638 9.464 -6.30513 9.45775 -6.68025C9.4515 -7.05538 9.44825 -7.24862 9.448 -7.26M13.24 -1.152C13.2741 -1.87234 13.3139 -2.58791 13.3594 -3.29869C13.405 -4.00947 13.4497 -4.65941 13.4935 -5.2485C13.5373 -5.83759 13.5738 -6.30978 13.6028 -6.66506C13.6318 -7.02034 13.6469 -7.20266 13.648 -7.212C13.3814 -7.60148 13.1186 -7.95985 12.8596 -8.28711C12.6005 -8.61437 12.3848 -8.87763 12.2124 -9.07689C12.0401 -9.27615 11.9506 -9.37852 11.944 -9.384C11.1863 -9.36825 10.5537 -9.36375 10.0465 -9.3705C9.53925 -9.37725 9.27575 -9.38175 9.256 -9.384C8.94422 -9.04919 8.66111 -8.72815 8.40667 -8.42089C8.15222 -8.11363 7.94911 -7.86104 7.79733 -7.66311C7.64556 -7.46519 7.56778 -7.36281 7.564 -7.356C7.6037 -6.22674 7.63496 -5.20393 7.65778 -4.28756C7.68059 -3.37119 7.69674 -2.64081 7.70622 -2.09644C7.7157 -1.55207 7.7203 -1.27326 7.72 -1.26C7.99852 -0.917111 8.27081 -0.613556 8.53689 -0.349333C8.80296 -0.0851112 9.0237 0.122444 9.19911 0.273333C9.37452 0.424222 9.46548 0.501111 9.472 0.504C10.172 0.5275 10.71 0.5435 11.086 0.552C11.462 0.5605 11.652 0.5645 11.656 0.564C12.0633 0.08825 12.4247 -0.31325 12.7405 -0.6405C13.0562 -0.96775 13.2228 -1.13825 13.24 -1.152" sodipodi:nodetypes="ccccccccccccccccccccccccccccccccccccccccccccccccccccccccccccccccccccccccccccccccccc"/>
</svg>
