<?xml version="1.0" standalone="no"?>
<!DOCTYPE svg PUBLIC "-//W3C//DTD SVG 20010904//EN" "http://www.w3.org/TR/2001/REC-SVG-20010904/DTD/svg10.dtd">
<!-- Created using Krita: https://krita.org -->
<svg xmlns="http://www.w3.org/2000/svg" 
    xmlns:xlink="http://www.w3.org/1999/xlink"
    xmlns:krita="http://krita.org/namespaces/svg/krita"
    xmlns:sodipodi="http://sodipodi.sourceforge.net/DTD/sodipodi-0.dtd"
    width="30.96pt"
    height="30.96pt"
    viewBox="0 0 30.96 30.96">
<defs>
  <linearGradient id="gradient0" gradientUnits="objectBoundingBox" x1="0.5" y1="0.00806451642949822" x2="0.5" y2="0.997983870892625" spreadMethod="pad">
   <stop stop-color="#ffee00" offset="0" stop-opacity="1"/>
   <stop stop-color="#ffbb00" offset="1" stop-opacity="1"/>
  </linearGradient>
  <radialGradient id="gradient1" gradientUnits="objectBoundingBox" cx="0.5" cy="0.5" fx="0.5" fy="0.5" r="1.41421356237309" spreadMethod="pad">
   <stop stop-color="#ffbb00" offset="0" stop-opacity="1"/>
   <stop stop-color="#ffff00" offset="0.363599985837936" stop-opacity="1"/>
  </radialGradient>
 </defs>
<g id="group0" transform="matrix(0.42793706059436 0 0 0.42793706059436 17.1018588212705 9.11229653835592)" fill="none">
  <circle id="shape0" r="14.88" cx="14.88" cy="14.88" fill="url(#gradient0)" fill-rule="evenodd" stroke="#915a13" stroke-width="0.72" stroke-linecap="square" stroke-linejoin="bevel"/>
  <circle id="shape01" transform="matrix(0.999999998128765 0 0 0.999999998128765 2.88 2.88)" r="12.0000000224548" cx="12.0000000224548" cy="12.0000000224548" fill="url(#gradient1)" stroke="#da871d" stroke-width="0.72" stroke-linecap="square" stroke-linejoin="bevel"/>
  <path id="shape01" transform="matrix(0.999999965221204 0 0 0.999999965221204 5.89745273652364 6.10045032203599)" fill="#000000" fill-opacity="0.243137254901961" fill-rule="evenodd" stroke-opacity="0" stroke="#000000" stroke-width="0" stroke-linecap="square" stroke-linejoin="bevel" d="M13.9188 3.35169C13.6322 2.53916 13.9163 3.30357 13.4569 2.41395C11.7492 1.56806 9.21135 1.08208 6.76992 0C-4.9548 7.06676 -0.775488 21.9098 14.1097 15.8887C14.8474 17.2293 15.2999 18.1061 15.4673 18.5191L18.9251 11.5188C18.6472 10.9779 18.9191 11.5004 18.4888 10.7033C15.1231 11.6451 13.6029 11.208 11.3992 9.98706C11.2639 10.8263 11.3865 10.0643 11.2671 10.8399C11.558 11.4655 12.1308 12.3989 12.9854 13.6401C4.69499 13.7385 5.84547 5.84566 13.9188 3.35169Z" sodipodi:nodetypes="ccccccccccc"/>
  <path id="shape1" transform="translate(5.73256310666996, 5.12028581980687)" fill="#ffffff" fill-rule="evenodd" stroke-opacity="0" stroke="#000000" stroke-width="0" stroke-linecap="square" stroke-linejoin="bevel" d="M13.9188 3.35169C9.44216 0.992808 10.1259 1.48742 6.76992 0C-4.9548 7.06676 -0.775487 21.9098 14.1097 15.8887C14.8474 17.2293 15.2999 18.1061 15.4673 18.5191L18.9251 11.5188L11.2671 10.8399C11.558 11.4655 12.1308 12.3989 12.9854 13.6401C4.69499 13.7385 5.84547 5.84566 13.9188 3.35169Z" sodipodi:nodetypes="cccccccc"/>
 </g><path id="shape02" transform="matrix(1.00000005192304 0 0 1.00000005192304 0.888000057107998 10.916000566792)" fill="#000000" fill-rule="evenodd" stroke-opacity="0" stroke="#000000" stroke-width="0" stroke-linecap="square" stroke-linejoin="bevel" d="M3.648 6.072C3.63575 6.073 3.47725 6.077 3.1725 6.084C2.86775 6.091 2.49025 6.095 2.04 6.096C1.98793 5.43622 1.94407 4.78911 1.90844 4.15467C1.87281 3.52022 1.84585 2.99311 1.82756 2.57333C1.80926 2.15356 1.80007 1.93578 1.8 1.92C1.80659 1.92037 1.90007 1.9263 2.08044 1.93778C2.26081 1.94926 2.48852 1.96407 2.76356 1.98222C3.03859 2.00037 3.32141 2.01963 3.612 2.04C3.63133 2.69044 3.64333 3.32156 3.648 3.93333C3.65267 4.54511 3.654 5.05089 3.652 5.45067C3.65 5.85044 3.64867 6.05756 3.648 6.072M5.088 9.864C5.13081 8.92156 5.17569 7.98344 5.22262 7.04962C5.26956 6.11581 5.31369 5.26094 5.355 4.485C5.39631 3.70906 5.42994 3.08669 5.45587 2.61788C5.48181 2.14906 5.49519 1.90844 5.496 1.896C4.977 1.37075 4.539 0.92725 4.182 0.5655C3.825 0.20375 3.639 0.01525 3.624 0C3.09475 0.01675 2.63525 0.02525 2.2455 0.0255C1.85575 0.02575 1.65125 0.02525 1.632 0.024C1.34363 0.29074 1.07637 0.55459 0.83022 0.81556C0.584074 1.07652 0.385259 1.29415 0.233778 1.46844C0.082296 1.64274 0.00437 1.73326 0 1.74C0.121037 3.23807 0.228296 4.59793 0.321778 5.81956C0.415259 7.04119 0.488741 8.01615 0.542222 8.74444C0.595704 9.47274 0.622963 9.84593 0.624 9.864C1.0505 9.862 1.4305 9.854 1.764 9.84C2.0975 9.826 2.2735 9.818 2.292 9.816C2.27207 9.43941 2.25593 9.07259 2.24356 8.71556C2.23119 8.35852 2.22215 8.06281 2.21644 7.82844C2.21074 7.59407 2.20793 7.47259 2.208 7.464C2.40726 7.45178 2.61807 7.44022 2.84044 7.42933C3.06281 7.41844 3.25319 7.40956 3.41156 7.40267C3.56993 7.39578 3.65274 7.39222 3.66 7.392C3.64793 7.79652 3.63741 8.18615 3.62844 8.56089C3.61948 8.93563 3.61252 9.24437 3.60756 9.48711C3.60259 9.72985 3.60007 9.85548 3.6 9.864C4.01375 9.85875 4.36225 9.85725 4.6455 9.8595C4.92875 9.86175 5.07625 9.86325 5.088 9.864M7.884 8.148C7.88311 8.13941 7.88889 7.80593 7.90133 7.14756C7.91378 6.48919 7.93822 5.55748 7.97467 4.35244C8.01111 3.14741 8.06489 1.72059 8.136 0.072C8.116 0.0715 7.904 0.0755 7.5 0.084C7.096 0.0925 6.62 0.1085 6.072 0.132C6.07234 0.14847 6.07916 0.45003 6.09244 1.03669C6.10572 1.62334 6.12341 2.39628 6.1455 3.3555C6.16759 4.31472 6.19203 5.36141 6.21881 6.49556C6.24559 7.62972 6.27266 8.75253 6.3 9.864L9.924 9.864L9.852 7.98C9.8457 7.98074 9.7476 7.98993 9.55778 8.00756C9.36793 8.02519 9.12407 8.04681 8.82622 8.07244C8.52837 8.09807 8.2143 8.12326 7.884 8.148M12.884 8.148C12.8831 8.13941 12.8889 7.80593 12.9013 7.14756C12.9138 6.48919 12.9382 5.55748 12.9747 4.35244C13.0111 3.14741 13.0649 1.72059 13.136 0.072C13.116 0.0715 12.904 0.0755 12.5 0.084C12.096 0.0925 11.62 0.1085 11.072 0.132C11.0723 0.14847 11.0792 0.45003 11.0924 1.03669C11.1057 1.62334 11.1234 2.39628 11.1455 3.3555C11.1676 4.31472 11.192 5.36141 11.2188 6.49556C11.2456 7.62972 11.2727 8.75253 11.3 9.864L14.924 9.864L14.852 7.98C14.8457 7.98074 14.7476 7.98993 14.5578 8.00756C14.3679 8.02519 14.1241 8.04681 13.8262 8.07244C13.5284 8.09807 13.2143 8.12326 12.884 8.148" sodipodi:nodetypes="cccccccccccccccccccccccccccccccccccccccccccccccccccccccccccccccccccccc"/>
</svg>
