<?xml version="1.0" standalone="no"?>
<!DOCTYPE svg PUBLIC "-//W3C//DTD SVG 20010904//EN" "http://www.w3.org/TR/2001/REC-SVG-20010904/DTD/svg10.dtd">
<!-- Created using Krita: https://krita.org -->
<svg xmlns="http://www.w3.org/2000/svg" 
    xmlns:xlink="http://www.w3.org/1999/xlink"
    xmlns:krita="http://krita.org/namespaces/svg/krita"
    xmlns:sodipodi="http://sodipodi.sourceforge.net/DTD/sodipodi-0.dtd"
    width="46.08pt"
    height="46.08pt"
    viewBox="0 0 46.08 46.08">
<defs/>
<path id="shape0" transform="translate(14.8598486544933, 6.10940244467389)" fill="#d00000" fill-rule="evenodd" stroke="#6d0000" stroke-width="0.72" stroke-linecap="round" stroke-linejoin="round" d="M0.795495 6.30032L3.3729 4.93207L5.02753 4.35931L6.65034 3.2138L8.78227 1.62281L10.7551 0.572756L13.1734 0L14.6689 0.127279L17.1191 0.604576L18.8373 1.62281L20.0147 2.60922L20.842 3.65928L21.2556 4.42295L21.1602 5.75938L20.9056 6.17304L21.9875 6.39578L24.2149 7.2231L26.0286 8.01859L27.365 9.06864L28.3196 10.5005L28.9242 12.2824L29.1151 14.9235L29.2106 16.9306L28.9878 20.1738L28.4787 23.4512L27.6514 25.7422L26.3786 27.3332L23.7694 28.9242L21.4465 29.497L19.3464 29.6561L16.5463 29.7515L15.0508 29.6879L11.9006 29.1788L9.60958 28.7015L6.87308 28.2242L4.04112 27.6832L0.827315 27.3969L0.318198 27.1105L0 20.7783L0.0636396 17.9464L0.159099 14.3507L0.318198 9.67322L0.540937 7.63675Z" sodipodi:nodetypes="cccccccccccccccccccccccccccccccccccccccccccc"/><path id="shape1" transform="translate(25.2728793475945, 10.721250537548)" fill="#b60000" fill-rule="evenodd" stroke="none" stroke-width="0.18" stroke-linecap="square" stroke-linejoin="bevel" d="M1.74962 4.4325L1.29666 4.8625L0.381838 4.74317L0 3.88404L0.365928 3.0965L1.02962 2.3625L2.14337 1.62L3.54962 0.81L5.47337 0.2475L7.54337 0L9.15212 0.28125L9.83837 0.405L10.4571 0.4725L10.4796 1.0575L10.5696 1.395L10.2209 1.665L8.95728 1.59301L7.40606 1.82371L5.34962 2.4525L3.25712 3.42L1.74962 4.4325" sodipodi:nodetypes="ccccccccccccccccccccc"/><path id="shape2" transform="translate(26.9774998913357, 12.3299999503353)" fill="none" stroke="#6d0000" stroke-width="0.72" stroke-linecap="round" stroke-linejoin="round" d="M0 2.9025L2.1825 1.4625L3.735 0.765L5.445 0.2925L6.9525 0L8.38688 0.00562565L9.0107 0.111543" sodipodi:nodetypes="ccccccc"/><path id="shape3" transform="translate(2.27250015802918, 13.4550009356579)" fill="#b60000" fill-rule="evenodd" stroke="#6d0000" stroke-width="0.72" stroke-linecap="round" stroke-linejoin="round" d="M3.2625 0.269999L1.7325 0.36L0.81 1.0575L0.4275 1.845L0.135 3.06L0 5.265L0.0675 15.1425L0.2475 16.335L0.63 17.5275L1.1475 19.2375L1.755 19.5525L10.845 20.115L11.34 19.935L11.7 19.575L12.42 19.7325L12.8025 19.71L12.6225 11.61L12.645 7.2675L12.825 3.78L12.9825 0.855L13.0725 0L12.105 0.0225L11.7225 0.0225L11.25 0" sodipodi:nodetypes="cccccccccccccccccccccccc"/><path id="shape4" transform="translate(4.61812502627116, 13.9132096088027)" fill="#910000" fill-rule="evenodd" stroke="none" stroke-width="0.18" stroke-linecap="square" stroke-linejoin="bevel" d="M0 0.19429L8.8337 0L9.00075 18.5191L0.0593865 18.535Z" sodipodi:nodetypes="ccccc"/><path id="shape5" transform="translate(2.43421518460652, 29.0514831836046)" fill="#910000" fill-rule="evenodd" stroke="none" stroke-width="0.18" stroke-linecap="square" stroke-linejoin="bevel" d="M12.6166 1.03414L1.73418 0.922774L1.20915 0.843225L0.875045 0.620486L0.525027 0.397748L0 0L0.286378 1.52735L0.827315 3.24562L1.38416 3.89793L2.45013 4.12066L6.25259 4.23203L10.2619 4.48659L11.0097 4.40704L11.6301 3.96157L12.7279 4.13657Z" sodipodi:nodetypes="cccccccccccccccc"/><rect id="shape6" transform="translate(5.58, 13.1081801940237)" fill="#d00000" fill-rule="evenodd" stroke="#6d0000" stroke-width="0.72" stroke-linecap="round" stroke-linejoin="round" width="7.92" height="18.54"/><path id="shape7" transform="translate(23.4511973522874, 7.2867356766266)" fill="#ff6d6d" fill-rule="evenodd" stroke="none" stroke-width="0.18" stroke-linecap="square" stroke-linejoin="bevel" d="M0.532981 1.53531L1.51144 0.898909L3.03879 0.350018L4.02521 0.0795495L5.47301 0L6.63443 0.143189L7.93904 0.429567L8.63908 0.700036L9.19592 1.09778L9.25956 1.46371L8.9891 1.71827L8.40043 1.87737L7.81176 1.73418L7.2231 1.49553L6.03781 1.36825L4.86843 1.35234L3.532 1.63076L2.64104 1.91714L1.99669 2.23534L1.12165 2.56945L0.636395 2.649L0.254557 2.5774L0 2.32285L0.127279 2.00465Z" sodipodi:nodetypes="ccccccccccccccccccccccccc"/><path id="shape0" transform="matrix(1.00000001337724 0 0 1.00000001337724 29.7418018788297 13.6854600867984)" fill="#ff6d6d" fill-rule="evenodd" stroke-opacity="0" stroke="#000000" stroke-width="0" stroke-linecap="square" stroke-linejoin="bevel" d="M0.450002 1.4175L1.5525 0.75375L2.97 0.25875L4.23 0L5.8725 0.07875L7.2675 0.326249L8.595 0.674999L9.91125 1.26L10.9125 2.1825L10.8112 2.745L10.1925 3.07125L9.37125 2.9475L8.4825 2.52L7.75125 2.12625L6.60375 1.935L5.49 1.935L4.12875 2.21625L3.25125 2.4525L2.59875 2.8125L1.72125 3.09375L1.2375 3.22875L0.6975 3.2625L0.18 2.98125L0 2.37375Z" sodipodi:nodetypes="ccccccccccccccccccccccccc"/><path id="shape8" transform="translate(14.9075788412649, 28.8446536170899)" fill="#b60000" fill-rule="evenodd" stroke="none" stroke-width="0.18" stroke-linecap="square" stroke-linejoin="bevel" d="M0 1.25688L1.67054 1.11369L3.99339 1.20915L6.25259 1.68645L8.5118 2.10011L10.7074 2.70468L12.7757 3.0547L15.0189 3.48427L17.4213 3.54791L19.6074 3.26285L21.4749 3.01535L22.8249 2.63285L23.833 2.4024L25.3604 1.78191L26.4474 1.21535L27.4605 0.525027L28.256 0L28.256 0.636396L28.0224 1.44035L27.9549 2.36285L27.0774 4.05035L25.7049 5.06285L24.6474 5.69285L23.1174 6.41285L21.5424 6.79535L19.1124 6.97535L16.1424 6.97535L14.0499 6.86285L11.8449 6.48035L9.57242 5.94035L6.24242 5.46785L3.60992 4.95035L1.44992 4.86035L0.572421 4.65785L0.212421 3.96035Z" sodipodi:nodetypes="cccccccccccccccccccccccccccccccccccc"/><path id="shape01" transform="matrix(0.999999978284037 0 0 0.999999978284037 14.9147003171682 6.18425032304124)" fill="none" stroke="#6d0000" stroke-width="0.72" stroke-linecap="round" stroke-linejoin="round" d="M0.795495 6.30032L3.3729 4.93207L5.02753 4.35931L6.65034 3.2138L8.78227 1.62281L10.7551 0.572756L13.1734 0L14.6689 0.127279L17.1191 0.604576L18.8373 1.62281L20.0147 2.60922L20.842 3.65928L21.2556 4.42295L21.1602 5.75938L20.9056 6.17304L21.9875 6.39578L24.2149 7.2231L26.0286 8.01859L27.365 9.06864L28.3196 10.5005L28.9242 12.2824L29.1151 14.9235L29.2106 16.9306L28.9878 20.1738L28.4787 23.4512L27.6514 25.7422L26.3786 27.3332L23.7694 28.9242L21.4465 29.497L19.3464 29.6561L16.5463 29.7515L15.0508 29.6879L11.9006 29.1788L9.60958 28.7015L6.87308 28.2242L4.04112 27.6832L0.827315 27.3969L0.318198 27.1105L0 20.7783L0.0636396 17.9464L0.159099 14.3507L0.318198 9.67322L0.540937 7.63675Z" sodipodi:nodetypes="cccccccccccccccccccccccccccccccccccccccccccc"/><path id="shape9" transform="translate(6.39578104059322, 13.9848048126404)" fill="#ff6d6d" fill-rule="evenodd" stroke="none" stroke-width="0.18" stroke-linecap="square" stroke-linejoin="bevel" d="M0.159099 0.493207L0 0.795495L0.0795495 1.09778L0.397748 1.36825L1.65463 1.52735L2.76832 1.51144L4.40704 1.47962L5.55256 1.33643L6.1094 1.1296L6.18895 0.811405L6.1094 0.477297L5.98212 0.206829L5.53665 0.0159099L4.78888 0L3.97748 0.0159099L2.22739 0.0636396L0.540937 0.159099Z" sodipodi:nodetypes="cccccccccccccccccc"/><path id="shape02" transform="matrix(0.999999988852292 0 0 0.999999988852292 2.28375007286421 13.5225001121181)" fill="none" stroke="#6d0000" stroke-width="0.72" stroke-linecap="round" stroke-linejoin="round" d="M3.2625 0.269999L1.7325 0.36L0.81 1.0575L0.4275 1.845L0.135 3.06L0 5.265L0.0675 15.1425L0.2475 16.335L0.63 17.5275L1.1475 19.2375L1.755 19.5525L10.845 20.115L11.34 19.935L11.7 19.575L12.42 19.7325L12.8025 19.71L12.6225 11.61L12.645 7.2675L12.825 3.78L12.9825 0.855L13.0725 0L12.105 0.0225L11.7225 0.0225L11.25 0" sodipodi:nodetypes="cccccccccccccccccccccccc"/>
</svg>
