<?xml version="1.0" standalone="no"?>
<!DOCTYPE svg PUBLIC "-//W3C//DTD SVG 20010904//EN" "http://www.w3.org/TR/2001/REC-SVG-20010904/DTD/svg10.dtd">
<!-- Created using Krita: https://krita.org -->
<svg xmlns="http://www.w3.org/2000/svg" 
    xmlns:xlink="http://www.w3.org/1999/xlink"
    xmlns:krita="http://krita.org/namespaces/svg/krita"
    xmlns:sodipodi="http://sodipodi.sourceforge.net/DTD/sodipodi-0.dtd"
    width="61.44pt"
    height="61.44pt"
    viewBox="0 0 61.44 61.44">
<defs/>
<path id="shape0" transform="translate(8.07122787477974, 55.9795815921044)" fill="#ffffff" fill-opacity="0.752941176470588" fill-rule="evenodd" stroke-opacity="0" stroke="#000000" stroke-width="0" stroke-linecap="square" stroke-linejoin="bevel" d="M31.9171 -52.6078C31.8817 -52.6078 31.0171 -52.6151 29.3233 -52.6296C27.6295 -52.6441 25.3192 -52.6658 22.3925 -52.6948C19.4658 -52.7238 16.1354 -52.7601 12.4013 -52.8036C12.3388 -52.7302 11.338 -51.588 9.39891 -49.3769C7.45984 -47.1659 4.95782 -44.3266 1.89284 -40.8592C1.91051 -40.7517 2.05465 -39.6612 2.32525 -37.5875C2.59585 -35.5138 2.88685 -33.1015 3.19824 -30.3507C3.23088 -30.3559 3.78205 -30.4179 4.85175 -30.5368C5.92146 -30.6557 7.31389 -30.7999 9.02905 -30.9695C10.7442 -31.1391 12.5863 -31.3027 14.5553 -31.4603C14.5525 -31.5119 14.509 -32.4529 14.4247 -34.2832C14.3404 -36.1135 14.2316 -38.523 14.0984 -41.5119C14.2044 -41.5255 15.8199 -41.5472 18.9447 -41.5771C22.0695 -41.6071 26.0673 -41.5635 30.9381 -41.4466C30.9353 -41.3825 30.8974 -40.5606 30.8245 -38.9808C30.7515 -37.4011 30.6605 -35.4478 30.5513 -33.121C30.4421 -30.7943 30.3317 -28.4784 30.2201 -26.1734C30.175 -26.1649 29.7141 -26.1093 28.8374 -26.0066C27.9606 -25.9038 26.9389 -25.8047 25.7721 -25.7092C24.6053 -25.6137 23.5642 -25.5726 22.6488 -25.5859C22.6134 -25.4894 22.0477 -24.7524 20.9517 -23.3749C19.8557 -21.9974 18.4416 -20.5588 16.7092 -19.0589C16.7146 -18.9977 16.769 -18.1247 16.8724 -16.4399C16.9757 -14.7552 17.0954 -12.6257 17.2313 -10.0516C17.2844 -10.0557 18.1084 -10.0639 19.7035 -10.0761C21.2985 -10.0883 23.3463 -10.0802 25.847 -10.0516C25.8579 -10.0707 25.9177 -10.7179 26.0265 -11.9934C26.1353 -13.2689 26.2278 -15.0584 26.3039 -17.3619C26.3393 -17.4108 26.8233 -17.5414 27.7562 -17.7535C28.689 -17.9656 29.8584 -17.9656 31.2644 -17.7535C31.3637 -17.7984 32.2748 -18.4103 33.9976 -19.5892C35.7205 -20.7682 37.6596 -22.2449 39.8148 -24.0194C39.842 -24.1282 40.1956 -25.7872 40.8755 -28.9963C41.5554 -32.2054 42.3985 -36.312 43.4047 -41.3161C43.3693 -41.3624 42.802 -41.9659 41.7028 -43.1267C40.6037 -44.2875 39.1855 -45.7274 37.4482 -47.4466C35.7109 -49.1658 33.8672 -50.8862 31.9171 -52.6078M16.5786 -5.4827C16.7119 -3.55995 16.8207 -1.80853 16.905 -0.228446C16.9893 1.35164 17.0328 2.18927 17.0355 2.28446L26.3039 2.28446C26.3692 0.221647 26.4181 -1.55969 26.4508 -3.05954C26.4834 -4.5594 26.4997 -5.34536 26.4997 -5.41743C23.8304 -5.47726 21.5324 -5.50446 19.6055 -5.49902C17.6787 -5.49358 16.6697 -5.48814 16.5786 -5.4827" sodipodi:nodetypes="cccccccccccccccccccccccccccccccccccccccccccccc"/>
</svg>
