<?xml version="1.0" standalone="no"?>
<!DOCTYPE svg PUBLIC "-//W3C//DTD SVG 20010904//EN" "http://www.w3.org/TR/2001/REC-SVG-20010904/DTD/svg10.dtd">
<!-- Created using Krita: https://krita.org -->
<svg xmlns="http://www.w3.org/2000/svg" 
    xmlns:xlink="http://www.w3.org/1999/xlink"
    xmlns:krita="http://krita.org/namespaces/svg/krita"
    xmlns:sodipodi="http://sodipodi.sourceforge.net/DTD/sodipodi-0.dtd"
    width="46.08pt"
    height="46.08pt"
    viewBox="0 0 46.08 46.08">
<defs/>
<g id="group0" transform="matrix(0.720041296623569 0 0 0.720041296623569 6.57985567515175 7.35750053780589)" fill="none">
  <path id="shape0" transform="matrix(1.01661858432157 0 0 1.01573972491439 22.795310234042 16.7010672434815)" fill="#ffff00" fill-rule="evenodd" stroke="#ffff00" stroke-width="0.1" stroke-linecap="square" stroke-linejoin="bevel" d="M12.108 11.0145L22.4863 0L0 5.00023Z" sodipodi:nodetypes="cccc"/>
  <path id="shape01" transform="matrix(1.01661860728043 0 0 1.01573974785341 15.3410166960959 1.45528515682614e-07)" fill="#ff9900" fill-rule="evenodd" stroke="#ff9900" stroke-width="0.1" stroke-linecap="square" stroke-linejoin="bevel" d="M7.43584 0L0 13.5594L7.39608 21.4425Z" sodipodi:nodetypes="cccc"/>
  <path id="shape02" transform="matrix(1.01661862165541 0 0 1.01573976221596 22.7953110942137 0)" fill="#ffff00" fill-rule="evenodd" stroke="#ffff00" stroke-width="0.36" stroke-linecap="square" stroke-linejoin="bevel" d="M0.0397571 0L0 21.4425L7.53513 13.4401Z" sodipodi:nodetypes="cccc"/>
  <path id="shape03" transform="matrix(1.01661858432157 0 0 1.01573972491439 22.795310234042 13.6516696107616)" fill="#ffcc00" fill-rule="evenodd" stroke="#ffcc00" stroke-width="0.1" stroke-linecap="square" stroke-linejoin="bevel" d="M0 8.00237L22.4863 3.00214L7.53513 0Z" sodipodi:nodetypes="cccc"/>
  <path id="shape04" transform="matrix(1.01661859207586 0 0 1.01573973266198 22.7953105704069 21.7799981814927)" fill="#ffff00" fill-rule="evenodd" stroke="#ffff00" stroke-width="0.1" stroke-linecap="square" stroke-linejoin="bevel" d="M0 0L13.957 21.4425L12.108 6.01423Z" sodipodi:nodetypes="cccc"/>
  <path id="shape05" transform="matrix(1.01661859207586 0 0 1.01573973266198 22.8600077106203 21.7799982610197)" fill="#ffcc00" fill-rule="evenodd" stroke="#ffcc00" stroke-width="0.1" stroke-linecap="square" stroke-linejoin="bevel" d="M0.0596356 14.961L13.957 21.4425L0 0Z" sodipodi:nodetypes="cccc"/>
  <path id="shape06" transform="matrix(1.01661855330871 0 0 1.01573969392834 8.66696601894266 21.7799972890697)" fill="#ffcc00" fill-rule="evenodd" stroke="#ffcc00" stroke-width="0.1" stroke-linecap="square" stroke-linejoin="bevel" d="M0 21.363L13.957 14.961L13.8974 0Z" sodipodi:nodetypes="cccc"/>
  <path id="shape07" transform="matrix(1.01661855330871 0 0 1.01573969392834 8.7316530278679 21.7799982610197)" fill="#ff9900" fill-rule="evenodd" stroke="#ff9900" stroke-width="0.1" stroke-linecap="square" stroke-linejoin="bevel" d="M13.8974 0L2.14723 6.09374L0 21.363Z" sodipodi:nodetypes="cccc"/>
  <path id="shape08" transform="matrix(1.0166185754799 0 0 1.01573971608037 6.67496653061761e-07 16.7212579702653)" fill="#ffcc00" fill-rule="evenodd" stroke="#ffcc00" stroke-width="0.1" stroke-linecap="square" stroke-linejoin="bevel" d="M22.4863 4.98035L0 0L10.7362 11.0741Z" sodipodi:nodetypes="cccc"/>
  <path id="shape09" transform="matrix(1.01661863520411 0 0 1.01573977575295 0 13.7728182413445)" fill="#ff9900" fill-rule="evenodd" stroke="#ff9900" stroke-width="0.1" stroke-linecap="square" stroke-linejoin="bevel" d="M15.0902 0L0 2.90275L22.4863 7.8831Z" sodipodi:nodetypes="cccc"/>
  <path id="shape010" transform="matrix(1.01661858432157 0 0 1.01573972491439 1.98436763681198e-05 1.95741177999587e-06)" fill="none" stroke="#915a13" stroke-width="0.54" stroke-linecap="square" stroke-linejoin="bevel" d="M22.5261 0L15.0902 13.5594L0 16.4621L10.7362 27.5362L8.58893 42.8055L22.546 36.4035L36.4433 42.885L34.5943 27.4567L44.9726 16.4423L30.0214 13.4401Z" sodipodi:nodetypes="ccccccccccc"/>
  <g id="group01" transform="matrix(1.52227329407673 0 0 1.52095729983324 12.4956704952451 15.2790270956811)" fill="none">
   <path id="shape011" transform="translate(-4.12920320016497e-05, 1.11286567126001e-05)" fill="#000000" fill-rule="evenodd" stroke-opacity="0" stroke="#000000" stroke-width="0" stroke-linecap="square" stroke-linejoin="bevel" d="M6.2568 0.7654L6.0856 0.6439L5.8525 0.5017L5.6099 0.3761L5.3585 0.2679L5.099 0.1777L4.8321 0.1063L4.5584 0.0544L4.2786 0.0227L3.9934 0.012L3.7082 0.0227L3.4285 0.0544L3.1548 0.1063L2.8878 0.1777L2.6283 0.2679L2.377 0.3761L2.1344 0.5017L1.9013 0.6439L1.6783 0.802L1.4661 0.9753L1.2655 1.1631L1.077 1.3645L0.9013 1.579L0.7392 1.8058L0.5913 2.0441L0.4582 2.2932L0.3407 2.5525L0.2394 2.8212L0.1551 3.0986L0.0883 3.3839L0.0397 3.6764L0.0101 3.9754L0 4.2802L0.0101 4.5851L0.0397 4.8841L0.0883 5.1766L0.1551 5.4619L0.2394 5.7393L0.3407 6.008L0.4582 6.2672L0.5913 6.5164L0.7392 6.7547L0.9013 6.9815L1.077 7.196L1.2655 7.3974L1.4661 7.5852L1.6783 7.7584L1.9013 7.9166L2.1344 8.0588L2.377 8.1844L2.6283 8.2926L2.8878 8.3828L3.1548 8.4542L3.4285 8.5061L3.7082 8.5378L3.9934 8.5485L4.2786 8.5378L4.5584 8.5061L4.8321 8.4542L5.099 8.3828L5.3585 8.2926L5.6099 8.1844L5.8525 8.0588L6.0856 7.9166L6.2114 7.8273L7.4187 7.8246L7.5315 7.9046L7.7646 8.0468L8.0072 8.1724L8.2585 8.2806L8.518 8.3708L8.785 8.4422L9.0587 8.4941L9.3384 8.5258L9.6236 8.5365L9.9088 8.5258L10.1886 8.4941L10.4623 8.4422L10.7292 8.3708L10.9887 8.2806L11.2401 8.1724L11.4827 8.0468L11.7158 7.9046L11.9387 7.7464L12.1509 7.5732L12.3516 7.3854L12.5401 7.184L12.7157 6.9695L12.8778 6.7427L13.0258 6.5044L13.1588 6.2552L13.2763 5.996L13.3776 5.7273L13.462 5.4499L13.5288 5.1646L13.5774 4.8721L13.607 4.5731L13.617 4.2682L13.607 3.9634L13.5774 3.6644L13.5288 3.3719L13.462 3.0866L13.3776 2.8092L13.2763 2.5405L13.1588 2.2813L13.0258 2.0321L12.8778 1.7938L12.7157 1.567L12.5401 1.3525L12.3516 1.1511L12.1509 0.9633L11.9387 0.79L11.7158 0.6319L11.4827 0.4897L11.2401 0.3641L10.9887 0.2559L10.7292 0.1657L10.4623 0.0943L10.1886 0.0424L9.9088 0.0107L9.6236 0L9.3384 0.0107L9.0587 0.0424L8.785 0.0943L8.518 0.1657L8.2585 0.2559L8.0072 0.3641L7.7646 0.4897L7.5315 0.6319L7.3508 0.76L6.2568 0.7654" sodipodi:nodetypes="ccccccccccccccccccccccccccccccccccccccccccccccccccccccccccccccccccccccccccccccccccccccccccccccccccccccccccccccccccccccccccccccccccc"/>
   <path id="shape1" transform="translate(0.72385870796799, 0.5131111286567)" fill="#ffffff" fill-rule="evenodd" stroke-opacity="0" stroke="#000000" stroke-width="0" stroke-linecap="square" stroke-linejoin="bevel" d="M12.1177 3.4174L12.1046 3.1097L12.0663 2.8097L12.0037 2.5186L11.9181 2.2377L11.8105 1.9681L11.6822 1.711L11.5341 1.4676L11.3674 1.2392L11.1834 1.0268L10.983 0.8317L10.7674 0.6551L10.5378 0.4981L10.2952 0.3621L10.0408 0.2481L9.7757 0.1573L9.5011 0.091L9.2181 0.0504L8.9277 0.0366L8.6374 0.0504L8.3543 0.091L8.0797 0.1573L7.8147 0.2481L7.5603 0.3621L7.3177 0.4981L7.0881 0.6551L6.8725 0.8317L6.6721 1.0268L6.488 1.2392L6.3214 1.4676L6.1733 1.711L6.068 1.922L5.9444 1.6745L5.7963 1.4311L5.6297 1.2027L5.4456 0.9903L5.2452 0.7952L5.0296 0.6186L4.8 0.4616L4.5574 0.3256L4.303 0.2116L4.038 0.1208L3.7634 0.0545L3.4803 0.0139L3.19 0L2.8996 0.0139L2.6166 0.0545L2.342 0.1208L2.0769 0.2116L1.8225 0.3256L1.58 0.4616L1.3503 0.6186L1.1347 0.7952L0.9344 0.9903L0.7503 1.2027L0.5836 1.4311L0.4356 1.6745L0.3072 1.9316L0.1996 2.2012L0.114 2.4821L0.0514 2.7732L0.0131 3.0732L0 3.3809L0.0131 3.6886L0.0514 3.9886L0.114 4.2797L0.1996 4.5606L0.3072 4.8302L0.4356 5.0873L0.5836 5.3307L0.7503 5.5591L0.9344 5.7715L1.1347 5.9666L1.3503 6.1432L1.58 6.3002L1.8225 6.4362L2.0769 6.5502L2.342 6.641L2.6166 6.7073L2.8996 6.7479L3.19 6.7618L3.4803 6.7479L3.7634 6.7073L4.038 6.641L4.303 6.5502L4.5574 6.4362L4.8 6.3002L5.0296 6.1432L5.2452 5.9666L5.4456 5.7715L5.6297 5.5591L5.7963 5.3307L5.9444 5.0873L6.0497 4.8763L6.1733 5.1238L6.3214 5.3672L6.488 5.5956L6.6721 5.808L6.8725 6.0031L7.0881 6.1797L7.3177 6.3367L7.5603 6.4727L7.8147 6.5867L8.0797 6.6775L8.3543 6.7438L8.6374 6.7844L8.9277 6.7983L9.2181 6.7844L9.5011 6.7438L9.7757 6.6775L10.0408 6.5867L10.2952 6.4727L10.5378 6.3367L10.7674 6.1797L10.983 6.0031L11.1834 5.808L11.3674 5.5956L11.5341 5.3672L11.6822 5.1238L11.8105 4.8667L11.9181 4.5971L12.0037 4.3162L12.0663 4.0251L12.1046 3.7251L12.1177 3.4174" sodipodi:nodetypes="ccccccccccccccccccccccccccccccccccccccccccccccccccccccccccccccccccccccccccccccccccccccccccccccccccccccccccccccccccccccccccccc"/>
   <path id="shape2" transform="translate(2.41035870796799, 1.0996111286567)" fill="#000000" fill-rule="evenodd" stroke-opacity="0" stroke="#000000" stroke-width="0" stroke-linecap="square" stroke-linejoin="bevel" d="M8.8039 1.7143C8.8039 0.7675 8.0008 0 7.0101 0C6.0193 0 5.2162 0.7675 5.2162 1.7143C5.2162 2.6611 6.0193 3.4286 7.0101 3.4286C8.0008 3.4286 8.8039 2.6611 8.8039 1.7143M3.5877 1.7245C3.5877 0.7777 2.7845 0.0102 1.7938 0.0102C0.8031 0.0102 0 0.7777 0 1.7245C0 2.6712 0.8031 3.4387 1.7938 3.4387C2.7845 3.4387 3.5877 2.6712 3.5877 1.7245" sodipodi:nodetypes="cccccccccc"/>
  </g>
 </g>
</svg>
