<?xml version="1.0" standalone="no"?>
<!DOCTYPE svg PUBLIC "-//W3C//DTD SVG 20010904//EN" "http://www.w3.org/TR/2001/REC-SVG-20010904/DTD/svg10.dtd">
<!-- Created using Krita: https://krita.org -->
<svg xmlns="http://www.w3.org/2000/svg" 
    xmlns:xlink="http://www.w3.org/1999/xlink"
    xmlns:krita="http://krita.org/namespaces/svg/krita"
    xmlns:sodipodi="http://sodipodi.sourceforge.net/DTD/sodipodi-0.dtd"
    width="46.08pt"
    height="46.08pt"
    viewBox="0 0 46.08 46.08">
<defs>
  <linearGradient id="gradient0" gradientUnits="objectBoundingBox" x1="0.499999999999997" y1="0" x2="0.499999999999997" y2="1" spreadMethod="pad">
   <stop stop-color="#ffbb00" offset="0" stop-opacity="1"/>
   <stop stop-color="#ffee00" offset="1" stop-opacity="1"/>
  </linearGradient>
  <linearGradient id="gradient1" gradientUnits="objectBoundingBox" x1="0.500000079774274" y1="-0.00478255952782813" x2="0.500000079774274" y2="0.997608720236086" spreadMethod="pad">
   <stop stop-color="#ffee00" offset="0" stop-opacity="1"/>
   <stop stop-color="#ffbb00" offset="1" stop-opacity="1"/>
  </linearGradient>
  <linearGradient id="gradient2" gradientUnits="objectBoundingBox" x1="0.5" y1="-0.0010000000452863" x2="0.5" y2="1.00200000009057" spreadMethod="pad">
   <stop stop-color="#ffee00" offset="0" stop-opacity="1"/>
   <stop stop-color="#ffbb00" offset="1" stop-opacity="1"/>
  </linearGradient>
  <linearGradient id="gradient3" gradientUnits="objectBoundingBox" x1="0.500000079774274" y1="-0.00478255952782813" x2="0.500000079774274" y2="0.997608720236086" spreadMethod="pad">
   <stop stop-color="#ffee00" offset="0" stop-opacity="1"/>
   <stop stop-color="#ffbb00" offset="1" stop-opacity="1"/>
  </linearGradient>
 </defs>
<circle id="shape0" transform="matrix(0.926999953686342 0 0 0.926999953686342 4.85821171842072 4.85821171842073)" r="19.6135805716893" cx="19.6135805716893" cy="19.6135805716893" fill="url(#gradient0)" fill-rule="evenodd" stroke-opacity="0.2" stroke="#000000" stroke-width="2.52" stroke-linecap="square" stroke-linejoin="bevel"/><path id="shape0" transform="translate(2.01539503308368e-06, 9.32860036328975e-07)" fill="url(#gradient1)" fill-rule="evenodd" stroke-opacity="0.2" stroke="#000000" stroke-width="1.08" stroke-linecap="square" stroke-linejoin="bevel" d="M31.2141 20.3306L31.2005 20.0411L31.1605 19.7589L31.0952 19.4851L31.0059 19.2208L30.8937 18.9672L30.7597 18.7253L30.6053 18.4963L30.4314 18.2814L30.2394 18.0816L30.0303 17.8981L29.8054 17.7319L29.5658 17.5843L29.3127 17.4563L29.0473 17.349L28.7708 17.2637L28.4843 17.2013L28.189 17.163L27.8861 17.15L27.5831 17.163L27.2878 17.2013L27.0012 17.2637L26.7247 17.349L26.4593 17.4563L26.2062 17.5843L25.9666 17.7319L25.7417 17.8981L25.5326 18.0816L25.3405 18.2814L25.1667 18.4963L25.0122 18.7253L24.8783 18.9672L24.766 19.2208L24.6767 19.4851L24.6114 19.7589L24.5714 20.0411L24.5578 20.3306L24.5714 20.6201L24.6114 20.9023L24.6767 21.1761L24.766 21.4404L24.8783 21.694L25.0122 21.9359L25.1667 22.1649L25.3405 22.3798L25.5326 22.5796L25.7417 22.7631L25.9666 22.9293L26.2062 23.0769L26.4593 23.2049L26.7247 23.3122L27.0012 23.3975L27.2878 23.4599L27.5831 23.4982L27.8861 23.5112L28.189 23.4982L28.4843 23.4599L28.7708 23.3975L29.0473 23.3122L29.3127 23.2049L29.5658 23.0769L29.8054 22.9293L30.0303 22.7631L30.2394 22.5796L30.4314 22.3798L30.6053 22.1649L30.7597 21.9359L30.8937 21.694L31.0059 21.4404L31.0952 21.1761L31.1605 20.9023L31.2005 20.6201L31.2141 20.3306M21.5365 20.3495L21.5229 20.06L21.4828 19.7778L21.4176 19.504L21.3282 19.2397L21.216 18.9861L21.082 18.7442L20.9275 18.5153L20.7537 18.3003L20.5616 18.1005L20.3525 17.917L20.1276 17.7508L19.888 17.6032L19.6349 17.4752L19.3695 17.368L19.093 17.2826L18.8065 17.2202L18.5111 17.182L18.2082 17.169L17.9053 17.182L17.61 17.2202L17.3235 17.2826L17.0469 17.368L16.7816 17.4752L16.5285 17.6032L16.2889 17.7508L16.064 17.917L15.8549 18.1005L15.6629 18.3003L15.489 18.5153L15.3345 18.7442L15.2006 18.9861L15.0884 19.2397L14.999 19.504L14.9338 19.7778L14.8938 20.06L14.8802 20.3495L14.8938 20.639L14.9338 20.9212L14.999 21.195L15.0884 21.4592L15.2006 21.7129L15.3345 21.9547L15.489 22.1836L15.6629 22.3986L15.8549 22.5984L16.064 22.7819L16.2889 22.948L16.5285 23.0957L16.7816 23.2237L17.0469 23.3309L17.3235 23.4163L17.61 23.4787L17.9053 23.5169L18.2082 23.5299L18.5111 23.5169L18.8065 23.4787L19.093 23.4163L19.3695 23.3309L19.6349 23.2237L19.888 23.0957L20.1276 22.948L20.3525 22.7819L20.5616 22.5984L20.7537 22.3986L20.9275 22.1836L21.082 21.9547L21.216 21.7129L21.3282 21.4592L21.4176 21.195L21.4828 20.9212L21.5229 20.639L21.5365 20.3495M22.0164 16.53L21.6988 16.3046L21.2663 16.0408L20.8162 15.8077L20.3498 15.607L19.8683 15.4396L19.3732 15.3072L18.8654 15.2109L18.3463 15.1521L17.8171 15.1322L17.288 15.1521L16.7691 15.2109L16.2613 15.3072L15.7659 15.4396L15.2844 15.607L14.8182 15.8077L14.3681 16.0408L13.9356 16.3046L13.5219 16.5979L13.1282 16.9194L12.756 17.2679L12.4063 17.6415L12.0803 18.0395L11.7796 18.4603L11.5052 18.9024L11.2582 19.3645L11.0402 19.8456L10.8523 20.3441L10.6959 20.8588L10.572 21.3881L10.4818 21.9308L10.4269 22.4855L10.4081 23.051L10.4269 23.6167L10.4818 24.1715L10.572 24.7141L10.6959 25.2435L10.8523 25.7581L11.0402 26.2566L11.2582 26.7375L11.5052 27.1999L11.7796 27.642L12.0803 28.0628L12.4063 28.4607L12.756 28.8344L13.1282 29.1828L13.5219 29.5042L13.9356 29.7977L14.3681 30.0615L14.8182 30.2945L15.2844 30.4953L15.7659 30.6626L16.2613 30.7951L16.7691 30.8914L17.288 30.9502L17.8171 30.97L18.3463 30.9502L18.8654 30.8914L19.3732 30.7951L19.8683 30.6626L20.3498 30.4953L20.8162 30.2945L21.2663 30.0615L21.6988 29.7977L21.9322 29.632L24.1721 29.627L24.3814 29.7754L24.8139 30.0392L25.264 30.2723L25.7302 30.473L26.2116 30.6404L26.707 30.7728L27.2148 30.8691L27.7337 30.9279L28.2629 30.9478L28.792 30.9279L29.3111 30.8691L29.8189 30.7728L30.3141 30.6404L30.7956 30.473L31.262 30.2723L31.7121 30.0392L32.1445 29.7754L32.5581 29.4819L32.9518 29.1606L33.3242 28.8121L33.6739 28.4385L33.9997 28.0405L34.3004 27.6197L34.575 27.1776L34.8218 26.7153L35.0398 26.2344L35.2277 25.7359L35.3843 25.2212L35.5082 24.6919L35.5984 24.1492L35.6533 23.5945L35.6719 23.0288L35.6533 22.4633L35.5984 21.9085L35.5082 21.3659L35.3843 20.8365L35.2277 20.3219L35.0398 19.8234L34.8218 19.3425L34.575 18.8801L34.3004 18.438L33.9997 18.0172L33.6739 17.6193L33.3242 17.2456L32.9518 16.8972L32.5581 16.5756L32.1445 16.2823L31.7121 16.0185L31.262 15.7855L30.7956 15.5847L30.3141 15.4174L29.8189 15.2849L29.3111 15.1886L28.792 15.1298L28.2629 15.11L27.7337 15.1298L27.2148 15.1886L26.707 15.2849L26.2116 15.4174L25.7302 15.5847L25.264 15.7855L24.8139 16.0185L24.3814 16.2823L24.0461 16.52L22.0164 16.53M34.2333 22.4022L34.2089 21.8314L34.1379 21.2748L34.0217 20.7347L33.8629 20.2135L33.6633 19.7133L33.4253 19.2363L33.1505 18.7848L32.8412 18.361L32.4998 17.9669L32.128 17.605L31.728 17.2773L31.3021 16.986L30.852 16.7337L30.38 16.5222L29.8881 16.3537L29.3787 16.2307L28.8536 16.1554L28.3148 16.1298L27.7762 16.1554L27.251 16.2307L26.7415 16.3537L26.2499 16.5222L25.7779 16.7337L25.3278 16.986L24.9018 17.2773L24.5018 17.605L24.13 17.9669L23.7884 18.361L23.4793 18.7848L23.2046 19.2363L23.0092 19.6278L22.7799 19.1686L22.5051 18.717L22.196 18.2933L21.8545 17.8992L21.4827 17.5372L21.0826 17.2096L20.6567 16.9183L20.2066 16.666L19.7346 16.4545L19.2429 16.286L18.7335 16.163L18.2082 16.0877L17.6696 16.0619L17.1308 16.0877L16.6058 16.163L16.0963 16.286L15.6045 16.4545L15.1325 16.666L14.6826 16.9183L14.2564 17.2096L13.8564 17.5372L13.4848 17.8992L13.1432 18.2933L12.834 18.717L12.5594 19.1686L12.3211 19.6456L12.1215 20.1458L11.9627 20.667L11.8466 21.207L11.7755 21.7636L11.7512 22.3345L11.7755 22.9054L11.8466 23.462L11.9627 24.0021L12.1215 24.5232L12.3211 25.0234L12.5594 25.5004L12.834 25.952L13.1432 26.3757L13.4848 26.7698L13.8564 27.1318L14.2564 27.4594L14.6826 27.7507L15.1325 28.003L15.6045 28.2145L16.0963 28.383L16.6058 28.506L17.1308 28.5813L17.6696 28.6071L18.2082 28.5813L18.7335 28.506L19.2429 28.383L19.7346 28.2145L20.2066 28.003L20.6567 27.7507L21.0826 27.4594L21.4827 27.1318L21.8545 26.7698L22.196 26.3757L22.5051 25.952L22.7799 25.5004L22.9752 25.1089L23.2046 25.5681L23.4793 26.0197L23.7884 26.4435L24.13 26.8375L24.5018 27.1995L24.9018 27.5272L25.3278 27.8184L25.7779 28.0708L26.2499 28.2823L26.7415 28.4507L27.251 28.5737L27.7762 28.6491L28.3148 28.6748L28.8536 28.6491L29.3787 28.5737L29.8881 28.4507L30.38 28.2823L30.852 28.0708L31.3021 27.8184L31.728 27.5272L32.128 27.1995L32.4998 26.8375L32.8412 26.4435L33.1505 26.0197L33.4253 25.5681L33.6633 25.0911L33.8629 24.5909L34.0217 24.0698L34.1379 23.5297L34.2089 22.9731L34.2333 22.4022" sodipodi:nodetypes="cccccccccccccccccccccccccccccccccccccccccccccccccccccccccccccccccccccccccccccccccccccccccccccccccccccccccccccccccccccccccccccccccccccccccccccccccccccccccccccccccccccccccccccccccccccccccccccccccccccccccccccccccccccccccccccccccccccccccccccccccccccccccccccccccccccccccccccccccccccccccccccccccccccccccccccccccccccccccccccccccccccccccccccccccccccccccccccccccccccccccccccccccccccccccccccccccccccccccccccccccc"/><path id="shape1" fill="url(#gradient2)" fill-rule="evenodd" stroke-opacity="0" stroke="#000000" stroke-width="0" stroke-linecap="square" stroke-linejoin="bevel" d="M43.8975 23.04L43.8905 22.4931L43.8695 21.9497L43.8347 21.41L43.7864 20.8741L43.7246 20.3421L43.6496 19.8143L43.5615 19.2908L43.4604 18.7719L43.3466 18.2576L43.2203 17.7481L43.0815 17.2437L42.9306 16.7444L42.7675 16.2505L42.5926 15.7621L42.406 15.2795L42.2078 14.8027L41.9983 14.3319L41.7775 13.8674L41.5458 13.4093L41.3031 12.9577L41.0498 12.5128L40.786 12.0749L40.5119 11.644L40.2276 11.2204L39.9333 10.8042L39.6291 10.3956L39.3153 9.9947L38.9921 9.60178L38.6595 9.21696L38.3178 8.84043L37.9671 8.47234L37.6077 8.11288L37.2396 7.7622L36.863 7.42049L36.4782 7.08792L36.0853 6.76466L35.6844 6.45087L35.2758 6.14674L34.8596 5.85243L34.436 5.56812L34.0051 5.29397L33.5672 5.03016L33.1223 4.77686L32.6707 4.53424L32.2126 4.30248L31.7481 4.08174L31.2773 3.8722L30.8005 3.67403L30.3179 3.4874L29.8295 3.31248L29.3356 3.14944L28.8363 2.99846L28.3319 2.85971L27.8224 2.73336L27.3081 2.61958L26.7892 2.51854L26.2657 2.43042L25.7379 2.35538L25.2059 2.2936L24.67 2.24525L24.1302 2.2105L23.5869 2.18953L23.04 2.1825L22.4931 2.18953L21.9497 2.2105L21.41 2.24525L20.8741 2.2936L20.3421 2.35538L19.8143 2.43042L19.2908 2.51854L18.7719 2.61958L18.2576 2.73336L17.7481 2.85971L17.2437 2.99846L16.7444 3.14944L16.2505 3.31248L15.7621 3.4874L15.2795 3.67403L14.8027 3.8722L14.3319 4.08174L13.8674 4.30248L13.4093 4.53424L12.9577 4.77686L12.5128 5.03016L12.0749 5.29397L11.644 5.56812L11.2204 5.85243L10.8042 6.14674L10.3956 6.45087L9.9947 6.76466L9.60178 7.08792L9.21696 7.42049L8.84043 7.7622L8.47234 8.11288L8.11288 8.47234L7.7622 8.84043L7.42049 9.21696L7.08792 9.60178L6.76466 9.9947L6.45087 10.3956L6.14674 10.8042L5.85243 11.2204L5.56812 11.644L5.29397 12.0749L5.03016 12.5128L4.77686 12.9577L4.53424 13.4093L4.30248 13.8674L4.08174 14.3319L3.8722 14.8027L3.67403 15.2795L3.4874 15.7621L3.31248 16.2505L3.14944 16.7444L2.99846 17.2437L2.85971 17.7481L2.73336 18.2576L2.61958 18.7719L2.51854 19.2908L2.43042 19.8143L2.35538 20.3421L2.2936 20.8741L2.24525 21.41L2.2105 21.9497L2.18953 22.4931L2.1825 23.04L2.18953 23.5869L2.2105 24.1302L2.24525 24.67L2.2936 25.2059L2.35538 25.7379L2.43042 26.2657L2.51854 26.7892L2.61958 27.3081L2.73336 27.8224L2.85971 28.3319L2.99846 28.8363L3.14944 29.3356L3.31248 29.8295L3.4874 30.3179L3.67403 30.8005L3.8722 31.2773L4.08174 31.7481L4.30248 32.2126L4.53424 32.6707L4.77686 33.1223L5.03016 33.5672L5.29397 34.0051L5.56812 34.436L5.85243 34.8596L6.14674 35.2758L6.45087 35.6844L6.76466 36.0853L7.08792 36.4782L7.42049 36.863L7.7622 37.2396L8.11288 37.6077L8.47234 37.9671L8.84043 38.3178L9.21696 38.6595L9.60178 38.9921L9.9947 39.3153L10.3956 39.6291L10.8042 39.9333L11.2204 40.2276L11.644 40.5119L12.0749 40.786L12.5128 41.0498L12.9577 41.3031L13.4093 41.5458L13.8674 41.7775L14.3319 41.9983L14.8027 42.2078L15.2795 42.406L15.7621 42.5926L16.2505 42.7675L16.7444 42.9306L17.2437 43.0815L17.7481 43.2203L18.2576 43.3466L18.7719 43.4604L19.2908 43.5615L19.8143 43.6496L20.3421 43.7246L20.8741 43.7864L21.41 43.8347L21.9497 43.8695L22.4931 43.8905L23.04 43.8975L23.5869 43.8905L24.1302 43.8695L24.67 43.8347L25.2059 43.7864L25.7379 43.7246L26.2657 43.6496L26.7892 43.5615L27.3081 43.4604L27.8224 43.3466L28.3319 43.2203L28.8363 43.0815L29.3356 42.9306L29.8295 42.7675L30.3179 42.5926L30.8005 42.406L31.2773 42.2078L31.7481 41.9983L32.2126 41.7775L32.6707 41.5458L33.1223 41.3031L33.5672 41.0498L34.0051 40.786L34.436 40.5119L34.8596 40.2276L35.2758 39.9333L35.6844 39.6291L36.0853 39.3153L36.4782 38.9921L36.863 38.6595L37.2396 38.3178L37.6077 37.9671L37.9671 37.6077L38.3178 37.2396L38.6595 36.863L38.9921 36.4782L39.3153 36.0853L39.6291 35.6844L39.9333 35.2758L40.2276 34.8596L40.5119 34.436L40.786 34.0051L41.0498 33.5672L41.3031 33.1223L41.5458 32.6707L41.7775 32.2126L41.9983 31.7481L42.2078 31.2773L42.406 30.8005L42.5926 30.3179L42.7675 29.8295L42.9306 29.3356L43.0815 28.8363L43.2203 28.3319L43.3466 27.8224L43.4604 27.3081L43.5615 26.7892L43.6496 26.2657L43.7246 25.7379L43.7864 25.2059L43.8347 24.67L43.8695 24.1302L43.8905 23.5869L43.8975 23.04M40.9774 23.04L40.9714 22.5697L40.9534 22.1024L40.9235 21.6382L40.8819 21.1773L40.8288 20.7198L40.7642 20.2659L40.6885 19.8157L40.6016 19.3694L40.5037 18.9271L40.395 18.489L40.2757 18.0552L40.1459 17.6258L40.0057 17.201L39.8552 16.781L39.6947 16.3659L39.5243 15.9559L39.3441 15.5511L39.1543 15.1516L38.9549 14.7576L38.7463 14.3692L38.5285 13.9866L38.3016 13.61L38.0658 13.2394L37.8213 12.8751L37.5682 12.5172L37.3066 12.1658L37.0368 11.821L36.7588 11.4831L36.4728 11.1522L36.1789 10.8284L35.8773 10.5118L35.5682 10.2027L35.2516 9.9011L34.9278 9.60723L34.5969 9.32121L34.259 9.04321L33.9142 8.77335L33.5628 8.5118L33.2049 8.25869L32.8406 8.01418L32.47 7.77842L32.0934 7.55154L31.7108 7.3337L31.3224 7.12505L30.9284 6.92573L30.5289 6.7359L30.1241 6.55569L29.7141 6.38527L29.299 6.22476L28.879 6.07433L28.4542 5.93412L28.0248 5.80428L27.591 5.68496L27.1529 5.57629L26.7106 5.47844L26.2643 5.39155L25.8141 5.31576L25.3602 5.25123L24.9027 5.1981L24.4418 5.15652L23.9776 5.12664L23.5103 5.1086L23.04 5.10255L22.5697 5.1086L22.1024 5.12664L21.6382 5.15652L21.1773 5.1981L20.7198 5.25123L20.2659 5.31576L19.8157 5.39155L19.3694 5.47844L18.9271 5.57629L18.489 5.68496L18.0552 5.80428L17.6258 5.93412L17.201 6.07433L16.781 6.22476L16.3659 6.38527L15.9559 6.55569L15.5511 6.7359L15.1516 6.92573L14.7576 7.12505L14.3692 7.3337L13.9866 7.55154L13.61 7.77842L13.2394 8.01418L12.8751 8.25869L12.5172 8.5118L12.1658 8.77335L11.821 9.04321L11.4831 9.32121L11.1522 9.60723L10.8284 9.9011L10.5118 10.2027L10.2027 10.5118L9.9011 10.8284L9.60723 11.1522L9.32121 11.4831L9.04321 11.821L8.77335 12.1658L8.5118 12.5172L8.25869 12.8751L8.01418 13.2394L7.77842 13.61L7.55154 13.9866L7.3337 14.3692L7.12505 14.7576L6.92573 15.1516L6.7359 15.5511L6.55569 15.9559L6.38527 16.3659L6.22476 16.781L6.07433 17.201L5.93412 17.6258L5.80428 18.0552L5.68496 18.489L5.57629 18.9271L5.47844 19.3694L5.39155 19.8157L5.31576 20.2659L5.25123 20.7198L5.1981 21.1773L5.15652 21.6382L5.12664 22.1024L5.1086 22.5697L5.10255 23.04L5.1086 23.5103L5.12664 23.9776L5.15652 24.4418L5.1981 24.9027L5.25123 25.3602L5.31576 25.8141L5.39155 26.2643L5.47844 26.7106L5.57629 27.1529L5.68496 27.591L5.80428 28.0248L5.93412 28.4542L6.07433 28.879L6.22476 29.299L6.38527 29.7141L6.55569 30.1241L6.7359 30.5289L6.92573 30.9284L7.12505 31.3224L7.3337 31.7108L7.55154 32.0934L7.77842 32.47L8.01418 32.8406L8.25869 33.2049L8.5118 33.5628L8.77335 33.9142L9.04321 34.259L9.32121 34.5969L9.60723 34.9278L9.9011 35.2516L10.2027 35.5682L10.5118 35.8773L10.8284 36.1789L11.1522 36.4728L11.4831 36.7588L11.821 37.0368L12.1658 37.3066L12.5172 37.5682L12.8751 37.8213L13.2394 38.0658L13.61 38.3016L13.9866 38.5285L14.3692 38.7463L14.7576 38.9549L15.1516 39.1543L15.5511 39.3441L15.9559 39.5243L16.3659 39.6947L16.781 39.8552L17.201 40.0057L17.6258 40.1459L18.0552 40.2757L18.489 40.395L18.9271 40.5037L19.3694 40.6016L19.8157 40.6885L20.2659 40.7642L20.7198 40.8288L21.1773 40.8819L21.6382 40.9235L22.1024 40.9534L22.5697 40.9714L23.04 40.9774L23.5103 40.9714L23.9776 40.9534L24.4418 40.9235L24.9027 40.8819L25.3602 40.8288L25.8141 40.7642L26.2643 40.6885L26.7106 40.6016L27.1529 40.5037L27.591 40.395L28.0248 40.2757L28.4542 40.1459L28.879 40.0057L29.299 39.8552L29.7141 39.6947L30.1241 39.5243L30.5289 39.3441L30.9284 39.1543L31.3224 38.9549L31.7108 38.7463L32.0934 38.5285L32.47 38.3016L32.8406 38.0658L33.2049 37.8213L33.5628 37.5682L33.9142 37.3066L34.259 37.0368L34.5969 36.7588L34.9278 36.4728L35.2516 36.1789L35.5682 35.8773L35.8773 35.5682L36.1789 35.2516L36.4728 34.9278L36.7588 34.5969L37.0368 34.259L37.3066 33.9142L37.5682 33.5628L37.8213 33.2049L38.0658 32.8406L38.3016 32.47L38.5285 32.0934L38.7463 31.7108L38.9549 31.3224L39.1543 30.9284L39.3441 30.5289L39.5243 30.1241L39.6947 29.7141L39.8552 29.299L40.0057 28.879L40.1459 28.4542L40.2757 28.0248L40.395 27.591L40.5037 27.1529L40.6016 26.7106L40.6885 26.2643L40.7642 25.8141L40.8288 25.3602L40.8819 24.9027L40.9235 24.4418L40.9534 23.9776L40.9714 23.5103L40.9774 23.04" sodipodi:nodetypes="cccccccccccccccccccccccccccccccccccccccccccccccccccccccccccccccccccccccccccccccccccccccccccccccccccccccccccccccccccccccccccccccccccccccccccccccccccccccccccccccccccccccccccccccccccccccccccccccccccccccccccccccccccccccccccccccccccccccccccccccccccccccccccccccccccccccccccccccccccccccccccccccccccccccccccccccccccccccccccccccccccccccccccccccccccccccccccccccccccccccccccccccccccccccccccccccccccccccccccccccccccccccccccccccccccccccccccccccccccccccccccccccccccccccccccccccccccccccccccccccccccccccccccccccccccccccccc"/><path id="shape01" transform="matrix(0.999999999711626 0 0 0.999999999711626 10.4081000036427 15.1100000022868)" fill="url(#gradient3)" fill-rule="evenodd" stroke-opacity="0" stroke="#000000" stroke-width="0" stroke-linecap="square" stroke-linejoin="bevel" d="M20.806 5.2206L20.7924 4.9311L20.7524 4.6489L20.6871 4.3751L20.5978 4.1108L20.4856 3.8572L20.3516 3.6153L20.1972 3.3863L20.0233 3.1714L19.8313 2.9716L19.6222 2.7881L19.3973 2.6219L19.1577 2.4743L18.9046 2.3463L18.6392 2.239L18.3627 2.1537L18.0762 2.0913L17.7809 2.053L17.478 2.04L17.175 2.053L16.8797 2.0913L16.5931 2.1537L16.3166 2.239L16.0512 2.3463L15.7981 2.4743L15.5585 2.6219L15.3336 2.7881L15.1245 2.9716L14.9324 3.1714L14.7586 3.3863L14.6041 3.6153L14.4702 3.8572L14.3579 4.1108L14.2686 4.3751L14.2033 4.6489L14.1633 4.9311L14.1497 5.2206L14.1633 5.5101L14.2033 5.7923L14.2686 6.0661L14.3579 6.3304L14.4702 6.584L14.6041 6.8259L14.7586 7.0549L14.9324 7.2698L15.1245 7.4696L15.3336 7.6531L15.5585 7.8193L15.7981 7.9669L16.0512 8.0949L16.3166 8.2022L16.5931 8.2875L16.8797 8.3499L17.175 8.3882L17.478 8.4012L17.7809 8.3882L18.0762 8.3499L18.3627 8.2875L18.6392 8.2022L18.9046 8.0949L19.1577 7.9669L19.3973 7.8193L19.6222 7.6531L19.8313 7.4696L20.0233 7.2698L20.1972 7.0549L20.3516 6.8259L20.4856 6.584L20.5978 6.3304L20.6871 6.0661L20.7524 5.7923L20.7924 5.5101L20.806 5.2206M11.1284 5.2395L11.1148 4.95L11.0747 4.6678L11.0095 4.394L10.9201 4.1297L10.8079 3.8761L10.6739 3.6342L10.5194 3.4053L10.3456 3.1903L10.1535 2.9905L9.9444 2.807L9.7195 2.6408L9.4799 2.4932L9.2268 2.3652L8.9614 2.258L8.6849 2.1726L8.3984 2.1102L8.103 2.072L7.8001 2.059L7.4972 2.072L7.2019 2.1102L6.9154 2.1726L6.6388 2.258L6.3735 2.3652L6.1204 2.4932L5.8808 2.6408L5.6559 2.807L5.4468 2.9905L5.2548 3.1903L5.0809 3.4053L4.9264 3.6342L4.7925 3.8761L4.6803 4.1297L4.5909 4.394L4.5257 4.6678L4.4857 4.95L4.4721 5.2395L4.4857 5.529L4.5257 5.8112L4.5909 6.085L4.6803 6.3492L4.7925 6.6029L4.9264 6.8447L5.0809 7.0736L5.2548 7.2886L5.4468 7.4884L5.6559 7.6719L5.8808 7.838L6.1204 7.9857L6.3735 8.1137L6.6388 8.2209L6.9154 8.3063L7.2019 8.3687L7.4972 8.4069L7.8001 8.4199L8.103 8.4069L8.3984 8.3687L8.6849 8.3063L8.9614 8.2209L9.2268 8.1137L9.4799 7.9857L9.7195 7.838L9.9444 7.6719L10.1535 7.4884L10.3456 7.2886L10.5194 7.0736L10.6739 6.8447L10.8079 6.6029L10.9201 6.3492L11.0095 6.085L11.0747 5.8112L11.1148 5.529L11.1284 5.2395M11.6083 1.42L11.2907 1.1946L10.8582 0.9308L10.4081 0.6977L9.9417 0.497L9.4602 0.3296L8.9651 0.1972L8.4573 0.1009L7.9382 0.0421L7.409 0.0222L6.8799 0.0421L6.361 0.1009L5.8532 0.1972L5.3578 0.3296L4.8763 0.497L4.4101 0.6977L3.96 0.9308L3.5275 1.1946L3.1138 1.4879L2.7201 1.8094L2.3479 2.1579L1.9982 2.5315L1.6722 2.9295L1.3715 3.3503L1.0971 3.7924L0.8501 4.2545L0.6321 4.7356L0.4442 5.2341L0.2878 5.7488L0.1639 6.2781L0.0737 6.8208L0.0188 7.3755L0 7.941L0.0188 8.5067L0.0737 9.0615L0.1639 9.6041L0.2878 10.1335L0.4442 10.6481L0.6321 11.1466L0.8501 11.6275L1.0971 12.0899L1.3715 12.532L1.6722 12.9528L1.9982 13.3507L2.3479 13.7244L2.7201 14.0728L3.1138 14.3942L3.5275 14.6877L3.96 14.9515L4.4101 15.1845L4.8763 15.3853L5.3578 15.5526L5.8532 15.6851L6.361 15.7814L6.8799 15.8402L7.409 15.86L7.9382 15.8402L8.4573 15.7814L8.9651 15.6851L9.4602 15.5526L9.9417 15.3853L10.4081 15.1845L10.8582 14.9515L11.2907 14.6877L11.5241 14.522L13.764 14.517L13.9733 14.6654L14.4058 14.9292L14.8559 15.1623L15.3221 15.363L15.8035 15.5304L16.2989 15.6628L16.8067 15.7591L17.3256 15.8179L17.8548 15.8378L18.3839 15.8179L18.903 15.7591L19.4108 15.6628L19.906 15.5304L20.3875 15.363L20.8539 15.1623L21.304 14.9292L21.7364 14.6654L22.15 14.3719L22.5437 14.0506L22.9161 13.7021L23.2658 13.3285L23.5916 12.9305L23.8923 12.5097L24.1669 12.0676L24.4137 11.6053L24.6317 11.1244L24.8196 10.6259L24.9762 10.1112L25.1001 9.5819L25.1903 9.0392L25.2452 8.4845L25.2638 7.9188L25.2452 7.3533L25.1903 6.7985L25.1001 6.2559L24.9762 5.7265L24.8196 5.2119L24.6317 4.7134L24.4137 4.2325L24.1669 3.7701L23.8923 3.328L23.5916 2.9072L23.2658 2.5093L22.9161 2.1356L22.5437 1.7872L22.15 1.4656L21.7364 1.1723L21.304 0.9085L20.8539 0.6755L20.3875 0.4747L19.906 0.3074L19.4108 0.1749L18.903 0.0786L18.3839 0.0198L17.8548 0L17.3256 0.0198L16.8067 0.0786L16.2989 0.1749L15.8035 0.3074L15.3221 0.4747L14.8559 0.6755L14.4058 0.9085L13.9733 1.1723L13.638 1.41L11.6083 1.42M23.8252 7.2922L23.8008 6.7214L23.7298 6.1648L23.6136 5.6247L23.4548 5.1035L23.2552 4.6033L23.0172 4.1263L22.7424 3.6748L22.4331 3.251L22.0917 2.8569L21.7199 2.495L21.3199 2.1673L20.894 1.876L20.4439 1.6237L19.9719 1.4122L19.48 1.2437L18.9706 1.1207L18.4455 1.0454L17.9067 1.0198L17.3681 1.0454L16.8429 1.1207L16.3334 1.2437L15.8418 1.4122L15.3698 1.6237L14.9197 1.876L14.4937 2.1673L14.0937 2.495L13.7219 2.8569L13.3803 3.251L13.0712 3.6748L12.7965 4.1263L12.6011 4.5178L12.3718 4.0586L12.097 3.607L11.7879 3.1833L11.4464 2.7892L11.0746 2.4272L10.6745 2.0996L10.2486 1.8083L9.7985 1.556L9.3265 1.3445L8.8348 1.176L8.3254 1.053L7.8001 0.9777L7.2615 0.9519L6.7227 0.9777L6.1977 1.053L5.6882 1.176L5.1964 1.3445L4.7244 1.556L4.2745 1.8083L3.8483 2.0996L3.4483 2.4272L3.0767 2.7892L2.7351 3.1833L2.4259 3.607L2.1513 4.0586L1.913 4.5356L1.7134 5.0358L1.5546 5.557L1.4385 6.097L1.3674 6.6536L1.3431 7.2245L1.3674 7.7954L1.4385 8.352L1.5546 8.8921L1.7134 9.4132L1.913 9.9134L2.1513 10.3904L2.4259 10.842L2.7351 11.2657L3.0767 11.6598L3.4483 12.0218L3.8483 12.3494L4.2745 12.6407L4.7244 12.893L5.1964 13.1045L5.6882 13.273L6.1977 13.396L6.7227 13.4713L7.2615 13.4971L7.8001 13.4713L8.3254 13.396L8.8348 13.273L9.3265 13.1045L9.7985 12.893L10.2486 12.6407L10.6745 12.3494L11.0746 12.0218L11.4464 11.6598L11.7879 11.2657L12.097 10.842L12.3718 10.3904L12.5671 9.9989L12.7965 10.4581L13.0712 10.9097L13.3803 11.3335L13.7219 11.7275L14.0937 12.0895L14.4937 12.4172L14.9197 12.7084L15.3698 12.9608L15.8418 13.1723L16.3334 13.3407L16.8429 13.4637L17.3681 13.5391L17.9067 13.5648L18.4455 13.5391L18.9706 13.4637L19.48 13.3407L19.9719 13.1723L20.4439 12.9608L20.894 12.7084L21.3199 12.4172L21.7199 12.0895L22.0917 11.7275L22.4331 11.3335L22.7424 10.9097L23.0172 10.4581L23.2552 9.9811L23.4548 9.4809L23.6136 8.9598L23.7298 8.4197L23.8008 7.8631L23.8252 7.2922" sodipodi:nodetypes="cccccccccccccccccccccccccccccccccccccccccccccccccccccccccccccccccccccccccccccccccccccccccccccccccccccccccccccccccccccccccccccccccccccccccccccccccccccccccccccccccccccccccccccccccccccccccccccccccccccccccccccccccccccccccccccccccccccccccccccccccccccccccccccccccccccccccccccccccccccccccccccccccccccccccccccccccccccccccccccccccccccccccccccccccccccccccccccccccccccccccccccccccccccccccccccccccccccccccccccccccc"/>
</svg>
